DeshretLanguage-Regular.ufo
<glyph name="B" format="2">
  <advance width="878"/>
  <unicode hex="0042"/>
  <outline>
    <contour>
      <point x="570" y="751" type="curve" smooth="yes"/>
      <point x="501" y="801" type="line" smooth="yes"/>
      <point x="490" y="810"/>
      <point x="486" y="809"/>
      <point x="479" y="801" type="curve" smooth="yes"/>
      <point x="445" y="768"/>
      <point x="443" y="723"/>
      <point x="444" y="703" type="curve" smooth="yes"/>
      <point x="448" y="665"/>
      <point x="470" y="643"/>
      <point x="499" y="631" type="curve" smooth="yes"/>
      <point x="538" y="616"/>
      <point x="608" y="613"/>
      <point x="655" y="628" type="curve" smooth="yes"/>
      <point x="694" y="639"/>
      <point x="720" y="664"/>
      <point x="728" y="695" type="curve" smooth="yes"/>
      <point x="735" y="724"/>
      <point x="729" y="768"/>
      <point x="713" y="793" type="curve" smooth="yes"/>
      <point x="701" y="810"/>
      <point x="690" y="809"/>
      <point x="681" y="803" type="curve" smooth="yes"/>
      <point x="613" y="751" type="line" smooth="yes"/>
      <point x="595" y="738"/>
      <point x="581" y="743"/>
    </contour>
    <contour>
      <point x="596" y="141" type="curve" smooth="yes"/>
      <point x="808" y="468" type="line" smooth="yes"/>
      <point x="813" y="475"/>
      <point x="810" y="484"/>
      <point x="805" y="489" type="curve" smooth="yes"/>
      <point x="779" y="515" type="line" smooth="yes"/>
      <point x="775" y="519"/>
      <point x="770" y="519"/>
      <point x="765" y="519" type="curve" smooth="yes"/>
      <point x="750" y="519" type="line" smooth="yes"/>
      <point x="730" y="519"/>
      <point x="720" y="511"/>
      <point x="698" y="511" type="curve" smooth="yes"/>
      <point x="689" y="511"/>
      <point x="675" y="513"/>
      <point x="659" y="523" type="curve" smooth="yes"/>
      <point x="535" y="599"/>
      <point x="340" y="599"/>
      <point x="236" y="523" type="curve" smooth="yes"/>
      <point x="145" y="455"/>
      <point x="118" y="396"/>
      <point x="83" y="291" type="curve" smooth="yes"/>
      <point x="61" y="228"/>
      <point x="61" y="70"/>
      <point x="84" y="14" type="curve" smooth="yes"/>
      <point x="98" y="-19"/>
      <point x="119" y="-18"/>
      <point x="135" y="-11" type="curve" smooth="yes"/>
      <point x="169" y="0"/>
      <point x="285" y="68"/>
      <point x="315" y="95" type="curve" smooth="yes"/>
      <point x="330" y="109"/>
      <point x="324" y="125"/>
      <point x="311" y="133" type="curve" smooth="yes"/>
      <point x="303" y="138"/>
      <point x="290" y="136"/>
      <point x="280" y="134" type="curve" smooth="yes"/>
      <point x="209" y="114" type="line" smooth="yes"/>
      <point x="178" y="105"/>
      <point x="170" y="125"/>
      <point x="171" y="146" type="curve" smooth="yes"/>
      <point x="178" y="303"/>
      <point x="213" y="360"/>
      <point x="259" y="408" type="curve" smooth="yes"/>
      <point x="323" y="475"/>
      <point x="491" y="515"/>
      <point x="620" y="439" type="curve" smooth="yes"/>
      <point x="636" y="429"/>
      <point x="639" y="425"/>
      <point x="635" y="419" type="curve" smooth="yes"/>
      <point x="469" y="141" type="line" smooth="yes"/>
      <point x="445" y="103"/>
      <point x="415" y="89"/>
      <point x="401" y="61" type="curve" smooth="yes"/>
      <point x="398" y="53"/>
      <point x="398" y="48"/>
      <point x="398" y="39" type="curve" smooth="yes"/>
      <point x="398" y="13" type="line" smooth="yes"/>
      <point x="398" y="1"/>
      <point x="406" y="0"/>
      <point x="416" y="0" type="curve" smooth="yes"/>
      <point x="520" y="6"/>
      <point x="729" y="8"/>
      <point x="734" y="8" type="curve" smooth="yes"/>
      <point x="746" y="8"/>
      <point x="748" y="15"/>
      <point x="748" y="18" type="curve" smooth="yes"/>
      <point x="739" y="71" type="line" smooth="yes"/>
      <point x="738" y="86"/>
      <point x="719" y="95"/>
      <point x="700" y="95" type="curve" smooth="yes"/>
      <point x="626" y="95" type="line" smooth="yes"/>
      <point x="611" y="95"/>
      <point x="571" y="103"/>
    </contour>
    <contour>
      <point x="273" y="231" type="curve" smooth="yes"/>
      <point x="453" y="290" type="line" smooth="yes"/>
      <point x="466" y="295"/>
      <point x="465" y="299"/>
      <point x="461" y="308" type="curve" smooth="yes"/>
      <point x="444" y="346"/>
      <point x="431" y="355"/>
      <point x="418" y="354" type="curve" smooth="yes"/>
      <point x="390" y="351"/>
      <point x="313" y="305"/>
      <point x="286" y="289" type="curve" smooth="yes"/>
      <point x="268" y="278"/>
      <point x="261" y="265"/>
      <point x="254" y="245" type="curve" smooth="yes"/>
      <point x="249" y="233"/>
      <point x="260" y="228"/>
    </contour>
  </outline>
  <guideline angle="0" x="0" y="807.5"/>
  <guideline angle="0" x="0" y="-0"/>
</glyph>
<glyph name="C" format="2">
  <advance width="916"/>
  <unicode hex="0043"/>
  <outline>
    <contour>
      <point x="85" y="549" type="curve" smooth="yes"/>
      <point x="85" y="18" type="line" smooth="yes"/>
      <point x="85" y="4"/>
      <point x="90" y="0"/>
      <point x="103" y="0" type="curve" smooth="yes"/>
      <point x="234" y="0" type="line" smooth="yes"/>
      <point x="249" y="0"/>
      <point x="254" y="0"/>
      <point x="271" y="14" type="curve" smooth="yes"/>
      <point x="814" y="434" type="line" smooth="yes"/>
      <point x="843" y="456"/>
      <point x="860" y="483"/>
      <point x="860" y="513" type="curve" smooth="yes"/>
      <point x="860" y="579"/>
      <point x="774" y="638"/>
      <point x="704" y="638" type="curve" smooth="yes"/>
      <point x="598" y="638" type="line" smooth="yes"/>
      <point x="586" y="638"/>
      <point x="583" y="640"/>
      <point x="578" y="645" type="curve" smooth="yes"/>
      <point x="486" y="741" type="line" smooth="yes"/>
      <point x="449" y="781"/>
      <point x="376" y="803"/>
      <point x="319" y="803" type="curve" smooth="yes"/>
      <point x="271" y="803"/>
      <point x="248" y="788"/>
      <point x="228" y="788" type="curve" smooth="yes"/>
      <point x="221" y="788"/>
      <point x="211" y="789"/>
      <point x="204" y="796" type="curve" smooth="yes"/>
      <point x="196" y="804"/>
      <point x="181" y="811"/>
      <point x="154" y="811" type="curve" smooth="yes"/>
      <point x="138" y="811"/>
      <point x="93" y="809"/>
      <point x="93" y="783" type="curve" smooth="yes"/>
      <point x="93" y="724" type="line" smooth="yes"/>
      <point x="93" y="706"/>
      <point x="106" y="694"/>
      <point x="124" y="694" type="curve" smooth="yes"/>
      <point x="201" y="694" type="line" smooth="yes"/>
      <point x="221" y="694"/>
      <point x="233" y="713"/>
      <point x="285" y="713" type="curve" smooth="yes"/>
      <point x="366" y="713"/>
      <point x="416" y="668"/>
      <point x="459" y="619" type="curve" smooth="yes"/>
      <point x="491" y="581"/>
      <point x="530" y="544"/>
      <point x="575" y="544" type="curve" smooth="yes"/>
      <point x="649" y="544" type="line" smooth="yes"/>
      <point x="681" y="544"/>
      <point x="701" y="523"/>
      <point x="701" y="510" type="curve" smooth="yes"/>
      <point x="701" y="501"/>
      <point x="694" y="494"/>
      <point x="660" y="466" type="curve" smooth="yes"/>
      <point x="478" y="321" type="line" smooth="yes"/>
      <point x="461" y="309"/>
      <point x="451" y="323"/>
      <point x="451" y="335" type="curve" smooth="yes"/>
      <point x="451" y="428" type="line" smooth="yes"/>
      <point x="451" y="439"/>
      <point x="443" y="444"/>
      <point x="431" y="444" type="curve" smooth="yes"/>
      <point x="346" y="444" type="line" smooth="yes"/>
      <point x="331" y="444"/>
      <point x="326" y="436"/>
      <point x="326" y="428" type="curve" smooth="yes"/>
      <point x="326" y="215" type="line" smooth="yes"/>
      <point x="326" y="200"/>
      <point x="323" y="195"/>
      <point x="315" y="190" type="curve" smooth="yes"/>
      <point x="224" y="119" type="line" smooth="yes"/>
      <point x="213" y="110"/>
      <point x="205" y="114"/>
      <point x="205" y="133" type="curve" smooth="yes"/>
      <point x="205" y="550" type="line" smooth="yes"/>
      <point x="205" y="566"/>
      <point x="193" y="573"/>
      <point x="179" y="571" type="curve" smooth="yes"/>
      <point x="108" y="565" type="line" smooth="yes"/>
      <point x="94" y="564"/>
      <point x="85" y="559"/>
    </contour>
    <contour>
      <point x="659" y="181" type="curve" smooth="yes"/>
      <point x="659" y="9" type="line" smooth="yes"/>
      <point x="659" y="0"/>
      <point x="664" y="-6"/>
      <point x="674" y="-6" type="curve" smooth="yes"/>
      <point x="758" y="-6" type="line" smooth="yes"/>
      <point x="770" y="-6"/>
      <point x="774" y="-3"/>
      <point x="774" y="10" type="curve" smooth="yes"/>
      <point x="774" y="175" type="line" smooth="yes"/>
      <point x="774" y="193"/>
      <point x="770" y="196"/>
      <point x="758" y="196" type="curve" smooth="yes"/>
      <point x="674" y="196" type="line" smooth="yes"/>
      <point x="664" y="196"/>
      <point x="659" y="193"/>
    </contour>
  </outline>
  <guideline angle="0" x="0" y="815"/>
  <guideline angle="0" x="0" y="-0"/>
</glyph>
<glyph name="D" format="2">
  <advance width="895"/>
  <unicode hex="0044"/>
  <outline>
    <contour>
      <point x="484" y="734" type="line"/>
      <point x="250" y="556" type="line" smooth="yes"/>
      <point x="236" y="545"/>
      <point x="231" y="536"/>
      <point x="231" y="525" type="curve" smooth="yes"/>
      <point x="231" y="308" type="line" smooth="yes"/>
      <point x="231" y="193"/>
      <point x="313" y="131"/>
      <point x="414" y="126" type="curve" smooth="yes"/>
      <point x="485" y="123" type="line" smooth="yes"/>
      <point x="500" y="121"/>
      <point x="508" y="111"/>
      <point x="508" y="98" type="curve" smooth="yes"/>
      <point x="508" y="15" type="line" smooth="yes"/>
      <point x="508" y="1"/>
      <point x="501.018" y="-0.5"/>
      <point x="494" y="-0.5" type="curve" smooth="yes"/>
      <point x="433" y="-0.5" type="line" smooth="yes"/>
      <point x="324.555" y="-0.5"/>
      <point x="265" y="10"/>
      <point x="188" y="71" type="curve" smooth="yes"/>
      <point x="135" y="113"/>
      <point x="109" y="181"/>
      <point x="109" y="241" type="curve" smooth="yes"/>
      <point x="109" y="734" type="line" smooth="yes"/>
      <point x="109" y="756"/>
      <point x="125" y="771"/>
      <point x="146" y="771" type="curve" smooth="yes"/>
      <point x="484" y="771" type="line"/>
    </contour>
    <contour>
      <point x="598" y="13" type="curve" smooth="yes"/>
      <point x="598" y="749" type="line" smooth="yes"/>
      <point x="598" y="766"/>
      <point x="604" y="771"/>
      <point x="616" y="771" type="curve" smooth="yes"/>
      <point x="790" y="771" type="line" smooth="yes"/>
      <point x="808" y="771"/>
      <point x="808" y="763"/>
      <point x="808" y="751" type="curve" smooth="yes"/>
      <point x="808" y="472.336" type="line" smooth="yes"/>
      <point x="808" y="443.064"/>
      <point x="799.372" y="423.827"/>
      <point x="780.148" y="403.211" type="curve" smooth="yes"/>
      <point x="724" y="343" type="line" smooth="yes"/>
      <point x="710.007" y="327.994"/>
      <point x="709" y="323"/>
      <point x="709" y="313" type="curve" smooth="yes"/>
      <point x="709" y="13" type="line" smooth="yes"/>
      <point x="709" y="-4"/>
      <point x="703" y="-1"/>
      <point x="696" y="-1" type="curve" smooth="yes"/>
      <point x="609" y="-1" type="line" smooth="yes"/>
      <point x="599" y="-1"/>
      <point x="598" y="5"/>
    </contour>
  </outline>
  <guideline angle="0" x="0" y="790"/>
  <guideline angle="0" x="0" y="2.5"/>
</glyph>
<glyph name="E" format="2">
  <advance width="891"/>
  <unicode hex="0045"/>
  <outline>
    <contour>
      <point x="405" y="538" type="line"/>
      <point x="405" y="455" type="line" smooth="yes"/>
      <point x="405" y="445"/>
      <point x="401" y="440"/>
      <point x="390" y="440" type="curve" smooth="yes"/>
      <point x="200" y="440" type="line" smooth="yes"/>
      <point x="189" y="440"/>
      <point x="189" y="448"/>
      <point x="189" y="455" type="curve" smooth="yes"/>
      <point x="189" y="611" type="line" smooth="yes"/>
      <point x="189" y="621"/>
      <point x="193" y="625"/>
      <point x="201" y="625" type="curve" smooth="yes"/>
      <point x="665" y="625" type="line" smooth="yes"/>
      <point x="674" y="625"/>
      <point x="676" y="621"/>
      <point x="676" y="614" type="curve" smooth="yes"/>
      <point x="676" y="153" type="line" smooth="yes"/>
      <point x="676" y="140"/>
      <point x="670" y="139"/>
      <point x="663" y="139" type="curve" smooth="yes"/>
      <point x="108" y="139" type="line" smooth="yes"/>
      <point x="90" y="139"/>
      <point x="85" y="131"/>
      <point x="85" y="115" type="curve" smooth="yes"/>
      <point x="85" y="28" type="line" smooth="yes"/>
      <point x="85" y="11"/>
      <point x="95" y="4"/>
      <point x="108" y="4" type="curve" smooth="yes"/>
      <point x="786" y="4" type="line" smooth="yes"/>
      <point x="808" y="4"/>
      <point x="816" y="14"/>
      <point x="816" y="34" type="curve" smooth="yes"/>
      <point x="816" y="736" type="line" smooth="yes"/>
      <point x="816" y="755"/>
      <point x="805" y="764"/>
      <point x="791" y="764" type="curve" smooth="yes"/>
      <point x="108" y="764" type="line" smooth="yes"/>
      <point x="94" y="764"/>
      <point x="85" y="754"/>
      <point x="85" y="739" type="curve" smooth="yes"/>
      <point x="85" y="363" type="line" smooth="yes"/>
      <point x="85" y="350"/>
      <point x="93" y="344"/>
      <point x="101" y="344" type="curve" smooth="yes"/>
      <point x="491" y="344" type="line" smooth="yes"/>
      <point x="501" y="344"/>
      <point x="504" y="348"/>
      <point x="504" y="358" type="curve" smooth="yes"/>
      <point x="504" y="538" type="line"/>
    </contour>
    <contour>
      <point x="101" y="293" type="curve" smooth="yes"/>
      <point x="491" y="293" type="line" smooth="yes"/>
      <point x="501" y="293"/>
      <point x="504" y="286"/>
      <point x="504" y="279" type="curve" smooth="yes"/>
      <point x="504" y="200" type="line" smooth="yes"/>
      <point x="504" y="190"/>
      <point x="499" y="188"/>
      <point x="491" y="188" type="curve" smooth="yes"/>
      <point x="101" y="188" type="line" smooth="yes"/>
      <point x="90" y="188"/>
      <point x="85" y="191"/>
      <point x="85" y="203" type="curve" smooth="yes"/>
      <point x="85" y="279" type="line" smooth="yes"/>
      <point x="85" y="286"/>
      <point x="89" y="293"/>
    </contour>
  </outline>
  <guideline angle="0" x="0" y="807.5"/>
  <guideline angle="0" x="0" y="47.5"/>
</glyph>
<glyph name="F" format="2">
  <advance width="844"/>
  <unicode hex="0046"/>
  <outline>
    <contour>
      <point x="83" y="406" type="curve" smooth="yes"/>
      <point x="83" y="358"/>
      <point x="121" y="319"/>
      <point x="170" y="319" type="curve" smooth="yes"/>
      <point x="218" y="319"/>
      <point x="256" y="358"/>
      <point x="256" y="406" type="curve" smooth="yes"/>
      <point x="256" y="455"/>
      <point x="218" y="494"/>
      <point x="170" y="494" type="curve" smooth="yes"/>
      <point x="121" y="494"/>
      <point x="83" y="455"/>
    </contour>
    <contour>
      <point x="481" y="524" type="curve" smooth="yes"/>
      <point x="606" y="524" type="line" smooth="yes"/>
      <point x="628" y="524"/>
      <point x="634" y="514"/>
      <point x="634" y="494" type="curve" smooth="yes"/>
      <point x="634" y="210" type="line" smooth="yes"/>
      <point x="634" y="185"/>
      <point x="611" y="190"/>
      <point x="595" y="198" type="curve" smooth="yes"/>
      <point x="426" y="281" type="line" smooth="yes"/>
      <point x="414" y="288"/>
      <point x="401" y="288"/>
      <point x="389" y="281" type="curve" smooth="yes"/>
      <point x="106" y="145" type="line" smooth="yes"/>
      <point x="83" y="134"/>
      <point x="61" y="115"/>
      <point x="61" y="88" type="curve" smooth="yes"/>
      <point x="61" y="51"/>
      <point x="98" y="36"/>
      <point x="133" y="36" type="curve" smooth="yes"/>
      <point x="143" y="36"/>
      <point x="156" y="38"/>
      <point x="174" y="46" type="curve" smooth="yes"/>
      <point x="391" y="164" type="line" smooth="yes"/>
      <point x="405" y="171"/>
      <point x="413" y="171"/>
      <point x="426" y="164" type="curve" smooth="yes"/>
      <point x="669" y="33" type="line" smooth="yes"/>
      <point x="683" y="25"/>
      <point x="690" y="23"/>
      <point x="701" y="23" type="curve" smooth="yes"/>
      <point x="734" y="23"/>
      <point x="746" y="44"/>
      <point x="746" y="69" type="curve" smooth="yes"/>
      <point x="746" y="735" type="line" smooth="yes"/>
      <point x="746" y="770"/>
      <point x="705" y="788"/>
      <point x="674" y="758" type="curve" smooth="yes"/>
      <point x="471" y="565" type="line" smooth="yes"/>
      <point x="448" y="543"/>
      <point x="463" y="524"/>
    </contour>
    <contour>
      <point x="91" y="669" type="curve" smooth="yes"/>
      <point x="91" y="639"/>
      <point x="105" y="616"/>
      <point x="115" y="616" type="curve" smooth="yes"/>
      <point x="221" y="616" type="line" smooth="yes"/>
      <point x="235" y="616"/>
      <point x="249" y="639"/>
      <point x="249" y="669" type="curve" smooth="yes"/>
      <point x="249" y="716"/>
      <point x="214" y="754"/>
      <point x="170" y="754" type="curve" smooth="yes"/>
      <point x="126" y="754"/>
      <point x="91" y="716"/>
    </contour>
  </outline>
</glyph>
<glyph name="G" format="2">
  <advance width="910"/>
  <unicode hex="0047"/>
  <outline>
    <contour>
      <point x="135" y="355" type="line"/>
      <point x="228" y="416" type="line" smooth="yes"/>
      <point x="243" y="426"/>
      <point x="244" y="436"/>
      <point x="244" y="448" type="curve" smooth="yes"/>
      <point x="244" y="864" type="line"/>
      <point x="205" y="839"/>
      <point x="174" y="814"/>
      <point x="153" y="790" type="curve" smooth="yes"/>
      <point x="139" y="774"/>
      <point x="135" y="765"/>
      <point x="135" y="751" type="curve" smooth="yes"/>
    </contour>
    <contour>
      <point x="363" y="410" type="curve" smooth="yes"/>
      <point x="363" y="363"/>
      <point x="403" y="323"/>
      <point x="453" y="323" type="curve" smooth="yes"/>
      <point x="501" y="323"/>
      <point x="539" y="360"/>
      <point x="539" y="408" type="curve" smooth="yes"/>
      <point x="539" y="455"/>
      <point x="501" y="495"/>
      <point x="451" y="495" type="curve" smooth="yes"/>
      <point x="403" y="495"/>
      <point x="363" y="458"/>
    </contour>
    <contour>
      <point x="305" y="704" type="curve" smooth="yes"/>
      <point x="305" y="646" type="line" smooth="yes"/>
      <point x="305" y="638"/>
      <point x="313" y="630"/>
      <point x="330" y="630" type="curve" smooth="yes"/>
      <point x="355" y="630"/>
      <point x="385" y="645"/>
      <point x="466" y="645" type="curve" smooth="yes"/>
      <point x="583" y="645"/>
      <point x="684" y="566"/>
      <point x="684" y="433" type="curve" smooth="yes"/>
      <point x="684" y="266"/>
      <point x="526" y="180"/>
      <point x="393" y="115" type="curve" smooth="yes"/>
      <point x="376" y="108"/>
      <point x="366" y="106"/>
      <point x="354" y="108" type="curve" smooth="yes"/>
      <point x="224" y="115" type="line" smooth="yes"/>
      <point x="211" y="116"/>
      <point x="199" y="113"/>
      <point x="196" y="104" type="curve" smooth="yes"/>
      <point x="168" y="23" type="line" smooth="yes"/>
      <point x="163" y="10"/>
      <point x="170" y="0"/>
      <point x="181" y="0" type="curve" smooth="yes"/>
      <point x="814" y="0" type="line" smooth="yes"/>
      <point x="824" y="0"/>
      <point x="823" y="6"/>
      <point x="820" y="13" type="curve" smooth="yes"/>
      <point x="799" y="65" type="line" smooth="yes"/>
      <point x="794" y="76"/>
      <point x="786" y="80"/>
      <point x="778" y="80" type="curve" smooth="yes"/>
      <point x="643" y="86" type="line" smooth="yes"/>
      <point x="619" y="88"/>
      <point x="608" y="91"/>
      <point x="608" y="101" type="curve" smooth="yes"/>
      <point x="608" y="110"/>
      <point x="614" y="115"/>
      <point x="625" y="124" type="curve" smooth="yes"/>
      <point x="673" y="164"/>
      <point x="799" y="273"/>
      <point x="799" y="451" type="curve" smooth="yes"/>
      <point x="799" y="645"/>
      <point x="648" y="748"/>
      <point x="485" y="748" type="curve" smooth="yes"/>
      <point x="426" y="748"/>
      <point x="305" y="734"/>
    </contour>
  </outline>
  <guideline angle="0" x="0" y="786.25"/>
  <guideline angle="0" x="0" y="-0"/>
</glyph>
<glyph name="H" format="2">
  <advance width="998"/>
  <unicode hex="0048"/>
  <outline>
    <contour>
      <point x="735" y="574" type="curve"/>
      <point x="735" y="684" type="line" smooth="yes"/>
      <point x="735" y="719"/>
      <point x="774" y="774"/>
      <point x="829" y="774" type="curve" smooth="yes"/>
      <point x="859" y="774"/>
      <point x="889" y="758"/>
      <point x="889" y="725" type="curve" smooth="yes"/>
      <point x="889" y="709"/>
      <point x="881" y="700"/>
      <point x="860" y="686" type="curve" smooth="yes"/>
      <point x="815" y="659"/>
      <point x="773" y="614"/>
    </contour>
    <contour>
      <point x="900" y="325" type="curve"/>
      <point x="900" y="30" type="line" smooth="yes"/>
      <point x="900" y="20"/>
      <point x="894" y="15"/>
      <point x="885" y="15" type="curve" smooth="yes"/>
      <point x="830" y="15" type="line" smooth="yes"/>
      <point x="814" y="15"/>
      <point x="809" y="23"/>
      <point x="809" y="35" type="curve" smooth="yes"/>
      <point x="809" y="211" type="line" smooth="yes"/>
      <point x="809" y="294"/>
      <point x="856" y="321"/>
    </contour>
    <contour>
      <point x="665" y="26" type="curve" smooth="yes"/>
      <point x="665" y="589" type="line" smooth="yes"/>
      <point x="665" y="645"/>
      <point x="664" y="694"/>
      <point x="634" y="734" type="curve" smooth="yes"/>
      <point x="598" y="780"/>
      <point x="538" y="794"/>
      <point x="508" y="794" type="curve" smooth="yes"/>
      <point x="464" y="794"/>
      <point x="453" y="766"/>
      <point x="453" y="746" type="curve" smooth="yes"/>
      <point x="453" y="726"/>
      <point x="464" y="709"/>
      <point x="480" y="700" type="curve" smooth="yes"/>
      <point x="554" y="660" type="line" smooth="yes"/>
      <point x="566" y="654"/>
      <point x="570" y="643"/>
      <point x="570" y="625" type="curve" smooth="yes"/>
      <point x="570" y="31" type="line" smooth="yes"/>
      <point x="570" y="14"/>
      <point x="579" y="13"/>
      <point x="588" y="13" type="curve" smooth="yes"/>
      <point x="650" y="13" type="line" smooth="yes"/>
      <point x="665" y="13"/>
      <point x="665" y="18"/>
    </contour>
    <contour>
      <point x="349" y="248" type="curve"/>
      <point x="349" y="378" type="line" smooth="yes"/>
      <point x="349" y="413"/>
      <point x="388" y="459"/>
      <point x="440" y="459" type="curve" smooth="yes"/>
      <point x="464" y="459"/>
      <point x="498" y="449"/>
      <point x="498" y="415" type="curve" smooth="yes"/>
      <point x="498" y="400"/>
      <point x="491" y="385"/>
      <point x="463" y="364" type="curve" smooth="yes"/>
      <point x="426" y="338"/>
      <point x="390" y="296"/>
    </contour>
    <contour>
      <point x="283" y="31" type="curve" smooth="yes"/>
      <point x="283" y="464" type="line" smooth="yes"/>
      <point x="283" y="551"/>
      <point x="171" y="604"/>
      <point x="118" y="604" type="curve" smooth="yes"/>
      <point x="88" y="604"/>
      <point x="69" y="588"/>
      <point x="63" y="566" type="curve" smooth="yes"/>
      <point x="55" y="540"/>
      <point x="69" y="509"/>
      <point x="101" y="501" type="curve" smooth="yes"/>
      <point x="130" y="494"/>
      <point x="188" y="459"/>
      <point x="188" y="404" type="curve" smooth="yes"/>
      <point x="188" y="33" type="line" smooth="yes"/>
      <point x="188" y="15"/>
      <point x="195" y="13"/>
      <point x="213" y="13" type="curve" smooth="yes"/>
      <point x="268" y="13" type="line" smooth="yes"/>
      <point x="280" y="13"/>
      <point x="283" y="21"/>
    </contour>
    <contour>
      <point x="273" y="630" type="curve"/>
      <point x="270" y="700"/>
      <point x="258" y="741"/>
      <point x="249" y="753" type="curve" smooth="yes"/>
      <point x="238" y="769"/>
      <point x="168" y="816"/>
      <point x="119" y="816" type="curve" smooth="yes"/>
      <point x="88" y="816"/>
      <point x="68" y="773"/>
      <point x="68" y="758" type="curve" smooth="yes"/>
      <point x="68" y="748"/>
      <point x="78" y="740"/>
      <point x="99" y="734" type="curve" smooth="yes"/>
      <point x="145" y="720"/>
      <point x="221" y="678"/>
    </contour>
  </outline>
  <guideline angle="0" x="0" y="790"/>
  <guideline angle="0" x="0" y="-0"/>
</glyph>
<glyph name="I" format="2">
  <advance width="779"/>
  <unicode hex="0049"/>
  <outline>
    <contour>
      <point x="354" y="774" type="curve" smooth="yes"/>
      <point x="370" y="786"/>
      <point x="373" y="786"/>
      <point x="385" y="786" type="curve" smooth="yes"/>
      <point x="466" y="786" type="line" smooth="yes"/>
      <point x="493" y="786"/>
      <point x="521" y="745"/>
      <point x="480" y="711" type="curve" smooth="yes"/>
      <point x="264" y="533" type="line" smooth="yes"/>
      <point x="255" y="525"/>
      <point x="259" y="515"/>
      <point x="269" y="509" type="curve" smooth="yes"/>
      <point x="385" y="441" type="line" smooth="yes"/>
      <point x="471" y="393"/>
      <point x="506" y="369"/>
      <point x="521" y="348" type="curve" smooth="yes"/>
      <point x="541" y="320"/>
      <point x="534" y="284"/>
      <point x="500" y="259" type="curve" smooth="yes"/>
      <point x="212" y="41" type="line" smooth="yes"/>
      <point x="195" y="28"/>
      <point x="186" y="26"/>
      <point x="169" y="26" type="curve" smooth="yes"/>
      <point x="119" y="26" type="line" smooth="yes"/>
      <point x="62" y="26"/>
      <point x="48" y="85"/>
      <point x="115" y="134" type="curve" smooth="yes"/>
      <point x="331" y="293" type="line" smooth="yes"/>
      <point x="344" y="303"/>
      <point x="345" y="317"/>
      <point x="334" y="323" type="curve" smooth="yes"/>
      <point x="109" y="450" type="line" smooth="yes"/>
      <point x="63" y="476"/>
      <point x="43" y="516"/>
      <point x="86" y="555" type="curve" smooth="yes"/>
      <point x="173" y="631"/>
      <point x="263" y="704"/>
    </contour>
    <contour>
      <point x="580" y="676" type="line" smooth="yes"/>
      <point x="603" y="693"/>
      <point x="635" y="697"/>
      <point x="650" y="690" type="curve" smooth="yes"/>
      <point x="685" y="674" type="line" smooth="yes"/>
      <point x="704" y="665"/>
      <point x="696" y="655"/>
      <point x="688" y="648" type="curve" smooth="yes"/>
      <point x="524" y="520" type="line" smooth="yes"/>
      <point x="514" y="512"/>
      <point x="501" y="507"/>
      <point x="488" y="505" type="curve" smooth="yes"/>
      <point x="470" y="502"/>
      <point x="449" y="503"/>
      <point x="438" y="505" type="curve" smooth="yes"/>
      <point x="430" y="506"/>
      <point x="416" y="508"/>
      <point x="419" y="533" type="curve" smooth="yes"/>
      <point x="420" y="548"/>
      <point x="425" y="557"/>
      <point x="441" y="570" type="curve" smooth="yes"/>
    </contour>
    <contour>
      <point x="578" y="211" type="line" smooth="yes"/>
      <point x="603" y="230"/>
      <point x="615" y="230"/>
      <point x="634" y="226" type="curve" smooth="yes"/>
      <point x="649" y="224"/>
      <point x="671" y="218"/>
      <point x="675" y="216" type="curve" smooth="yes"/>
      <point x="691" y="210"/>
      <point x="694" y="186"/>
      <point x="681" y="176" type="curve" smooth="yes"/>
      <point x="505" y="45" type="line" smooth="yes"/>
      <point x="488" y="31"/>
      <point x="456" y="30"/>
      <point x="443" y="36" type="curve" smooth="yes"/>
      <point x="431" y="41"/>
      <point x="423" y="48"/>
      <point x="421" y="49" type="curve" smooth="yes"/>
      <point x="400" y="64"/>
      <point x="411" y="83"/>
      <point x="429" y="96" type="curve" smooth="yes"/>
    </contour>
  </outline>
  <guideline angle="0" x="0" y="793.75"/>
  <guideline angle="0" x="0" y="26.25"/>
</glyph>
<glyph name="J" format="2">
  <advance width="901"/>
  <unicode hex="004A"/>
  <outline>
    <contour>
      <point x="356.27" y="780" type="curve" smooth="yes"/>
      <point x="449.931" y="822" type="line" smooth="yes"/>
      <point x="452.94" y="823.349"/>
      <point x="455.82" y="823.936"/>
      <point x="458.504" y="823.9" type="curve" smooth="yes"/>
      <point x="469.24" y="823.755"/>
      <point x="476.761" y="813.535"/>
      <point x="477.478" y="801" type="curve" smooth="yes"/>
      <point x="505.049" y="318.894" type="line" smooth="yes"/>
      <point x="505.712" y="307.306"/>
      <point x="501.114" y="299.819"/>
      <point x="488.101" y="298.379" type="curve" smooth="yes"/>
      <point x="435.137" y="292.518"/>
      <point x="388.986" y="298.137"/>
      <point x="366.935" y="306.582" type="curve" smooth="yes"/>
      <point x="344.284" y="315.256"/>
      <point x="332.585" y="332.457"/>
      <point x="333.144" y="348.188" type="curve" smooth="yes"/>
      <point x="348.187" y="771.927" type="line" smooth="yes"/>
      <point x="348.509" y="780.976"/>
      <point x="349.803" y="777.1"/>
    </contour>
    <contour>
      <point x="333.649" y="82.2465" type="curve" smooth="yes"/>
      <point x="324.838" y="2.60062" type="line" smooth="yes"/>
      <point x="323.192" y="-12.283"/>
      <point x="335.564" y="-25.6957"/>
      <point x="343.415" y="-27" type="curve" smooth="yes"/>
      <point x="508.192" y="-54.3779" type="line" smooth="yes"/>
      <point x="525.859" y="-57.3132"/>
      <point x="529.764" y="-45.6157"/>
      <point x="528.751" y="-31.329" type="curve" smooth="yes"/>
      <point x="517.232" y="131.125" type="line" smooth="yes"/>
      <point x="515.741" y="152.15"/>
      <point x="502.579" y="153.431"/>
      <point x="481.788" y="152.546" type="curve" smooth="yes"/>
      <point x="440.769" y="150.799"/>
      <point x="393.872" y="147.211"/>
      <point x="375.852" y="142.023" type="curve" smooth="yes"/>
      <point x="353.461" y="135.576"/>
      <point x="337.342" y="115.628"/>
    </contour>
    <contour>
      <point x="53.3301" y="331.156" type="curve" smooth="yes"/>
      <point x="154.891" y="225.718"/>
      <point x="290.298" y="162.694"/>
      <point x="415.268" y="162.694" type="curve" smooth="yes"/>
      <point x="568.145" y="162.694"/>
      <point x="731.763" y="222.79"/>
      <point x="812.79" y="308.701" type="curve" smooth="yes"/>
      <point x="823.264" y="319.806"/>
      <point x="825.595" y="328.214"/>
      <point x="819.842" y="334.138" type="curve" smooth="yes"/>
      <point x="761.795" y="393.911" type="line" smooth="yes"/>
      <point x="754.97" y="400.939"/>
      <point x="746.544" y="399.899"/>
      <point x="731.631" y="390.187" type="curve" smooth="yes"/>
      <point x="601.489" y="305.435"/>
      <point x="541.892" y="284.114"/>
      <point x="435.137" y="284.114" type="curve" smooth="yes"/>
      <point x="330.972" y="284.114"/>
      <point x="239.283" y="321.694"/>
      <point x="133.316" y="407.82" type="curve" smooth="yes"/>
      <point x="121.61" y="417.334"/>
      <point x="113.486" y="416.87"/>
      <point x="103.972" y="406.145" type="curve" smooth="yes"/>
      <point x="52.5132" y="348.133" type="line" smooth="yes"/>
      <point x="46.8978" y="341.802"/>
      <point x="47.0988" y="337.625"/>
    </contour>
  </outline>
  <guideline angle="0" x="0" y="754"/>
  <guideline angle="0" x="0" y="21"/>
</glyph>
<glyph name="L" format="2">
  <advance width="769"/>
  <unicode hex="004C"/>
  <outline>
    <contour>
      <point x="523" y="211" type="curve" smooth="yes"/>
      <point x="626" y="329" type="line" smooth="yes"/>
      <point x="633" y="335"/>
      <point x="633" y="340"/>
      <point x="626" y="349" type="curve" smooth="yes"/>
      <point x="531" y="469" type="line" smooth="yes"/>
      <point x="521" y="481"/>
      <point x="513" y="478"/>
      <point x="513" y="460" type="curve" smooth="yes"/>
      <point x="513" y="215" type="line" smooth="yes"/>
      <point x="513" y="205"/>
      <point x="516" y="204"/>
    </contour>
    <contour>
      <point x="438" y="60" type="curve" smooth="yes"/>
      <point x="438" y="540" type="line" smooth="yes"/>
      <point x="438" y="550"/>
      <point x="431" y="554"/>
      <point x="425" y="554" type="curve" smooth="yes"/>
      <point x="341" y="554" type="line" smooth="yes"/>
      <point x="333" y="554"/>
      <point x="328" y="548"/>
      <point x="328" y="540" type="curve" smooth="yes"/>
      <point x="328" y="-25" type="line" smooth="yes"/>
      <point x="328" y="-38"/>
      <point x="334" y="-38"/>
      <point x="341" y="-30" type="curve" smooth="yes"/>
      <point x="366" y="-4"/>
      <point x="396" y="23"/>
      <point x="420" y="36" type="curve" smooth="yes"/>
      <point x="438" y="46"/>
      <point x="438" y="51"/>
    </contour>
    <contour>
      <point x="73" y="619" type="curve" smooth="yes"/>
      <point x="699" y="619" type="line" smooth="yes"/>
      <point x="711" y="619"/>
      <point x="714" y="621"/>
      <point x="713" y="633" type="curve" smooth="yes"/>
      <point x="701" y="755" type="line" smooth="yes"/>
      <point x="700" y="764"/>
      <point x="698" y="765"/>
      <point x="690" y="765" type="curve" smooth="yes"/>
      <point x="626" y="765" type="line" smooth="yes"/>
      <point x="621" y="765"/>
      <point x="618" y="761"/>
      <point x="611" y="755" type="curve" smooth="yes"/>
      <point x="596" y="740"/>
      <point x="575" y="723"/>
      <point x="539" y="723" type="curve" smooth="yes"/>
      <point x="475" y="723" type="line" smooth="yes"/>
      <point x="463" y="723"/>
      <point x="461" y="729"/>
      <point x="461" y="739" type="curve" smooth="yes"/>
      <point x="461" y="766" type="line" smooth="yes"/>
      <point x="461" y="776"/>
      <point x="454" y="779"/>
      <point x="446" y="779" type="curve" smooth="yes"/>
      <point x="323" y="779" type="line" smooth="yes"/>
      <point x="311" y="779"/>
      <point x="309" y="773"/>
      <point x="309" y="765" type="curve" smooth="yes"/>
      <point x="309" y="733" type="line" smooth="yes"/>
      <point x="309" y="724"/>
      <point x="303" y="723"/>
      <point x="295" y="723" type="curve" smooth="yes"/>
      <point x="241" y="723" type="line" smooth="yes"/>
      <point x="214" y="723"/>
      <point x="186" y="738"/>
      <point x="173" y="759" type="curve" smooth="yes"/>
      <point x="169" y="764"/>
      <point x="165" y="769"/>
      <point x="160" y="769" type="curve" smooth="yes"/>
      <point x="99" y="769" type="line" smooth="yes"/>
      <point x="90" y="769"/>
      <point x="84" y="764"/>
      <point x="83" y="758" type="curve" smooth="yes"/>
      <point x="63" y="634" type="line" smooth="yes"/>
      <point x="61" y="623"/>
      <point x="65" y="619"/>
    </contour>
  </outline>
  <guideline angle="0" x="0" y="803.75"/>
  <guideline angle="0" x="0" y="-16.25"/>
</glyph>
<glyph name="N" format="2">
  <advance width="903"/>
  <unicode hex="004E"/>
  <outline>
    <contour>
      <point x="116" y="749" type="curve"/>
      <point x="164" y="780"/>
      <point x="175" y="788"/>
      <point x="215" y="788" type="curve" smooth="yes"/>
      <point x="290" y="788"/>
      <point x="329" y="783"/>
      <point x="361" y="783" type="curve" smooth="yes"/>
      <point x="385" y="783" type="line" smooth="yes"/>
      <point x="395" y="783"/>
      <point x="394" y="771"/>
      <point x="384" y="766" type="curve" smooth="yes"/>
      <point x="374" y="761"/>
      <point x="324" y="721"/>
      <point x="311" y="708" type="curve" smooth="yes"/>
      <point x="298" y="691"/>
      <point x="291" y="660"/>
      <point x="291" y="639" type="curve" smooth="yes"/>
      <point x="291" y="505" type="line" smooth="yes"/>
      <point x="291" y="484"/>
      <point x="316" y="473"/>
      <point x="335" y="485" type="curve" smooth="yes"/>
      <point x="656" y="690" type="line" smooth="yes"/>
      <point x="671" y="700"/>
      <point x="696" y="719"/>
      <point x="705" y="726" type="curve" smooth="yes"/>
      <point x="713" y="734"/>
      <point x="733" y="739"/>
      <point x="743" y="730" type="curve" smooth="yes"/>
      <point x="753" y="721"/>
      <point x="749" y="708"/>
      <point x="748" y="693" type="curve" smooth="yes"/>
      <point x="746" y="678"/>
      <point x="731" y="634"/>
      <point x="708" y="615" type="curve" smooth="yes"/>
      <point x="684" y="596"/>
      <point x="544" y="516"/>
      <point x="483" y="471" type="curve" smooth="yes"/>
      <point x="463" y="458"/>
      <point x="456" y="445"/>
      <point x="480" y="440" type="curve" smooth="yes"/>
      <point x="491" y="438"/>
      <point x="505" y="438"/>
      <point x="516" y="438" type="curve" smooth="yes"/>
      <point x="588" y="438" type="line" smooth="yes"/>
      <point x="615" y="438"/>
      <point x="630" y="428"/>
      <point x="638" y="403" type="curve" smooth="yes"/>
      <point x="645" y="376"/>
      <point x="644" y="360"/>
      <point x="644" y="341" type="curve" smooth="yes"/>
      <point x="644" y="179" type="line" smooth="yes"/>
      <point x="644" y="126"/>
      <point x="684" y="140"/>
      <point x="725" y="145" type="curve" smooth="yes"/>
      <point x="749" y="148"/>
      <point x="781" y="151"/>
      <point x="795" y="151" type="curve" smooth="yes"/>
      <point x="809" y="151"/>
      <point x="810" y="144"/>
      <point x="804" y="131" type="curve" smooth="yes"/>
      <point x="798" y="119"/>
      <point x="775" y="88"/>
      <point x="764" y="74" type="curve"/>
      <point x="753" y="61"/>
      <point x="736" y="50"/>
      <point x="715" y="49" type="curve" smooth="yes"/>
      <point x="433" y="38" type="line"/>
      <point x="481" y="104" type="line" smooth="yes"/>
      <point x="488" y="113"/>
      <point x="493" y="118"/>
      <point x="501" y="123" type="curve" smooth="yes"/>
      <point x="510" y="129"/>
      <point x="524" y="136"/>
      <point x="528" y="146" type="curve" smooth="yes"/>
      <point x="531" y="156"/>
      <point x="529" y="174"/>
      <point x="529" y="188" type="curve" smooth="yes"/>
      <point x="529" y="313" type="line" smooth="yes"/>
      <point x="529" y="333"/>
      <point x="514" y="353"/>
      <point x="495" y="353" type="curve" smooth="yes"/>
      <point x="338" y="353" type="line" smooth="yes"/>
      <point x="315" y="353"/>
      <point x="291" y="331"/>
      <point x="291" y="304" type="curve" smooth="yes"/>
      <point x="291" y="50" type="line" smooth="yes"/>
      <point x="291" y="40"/>
      <point x="283" y="38"/>
      <point x="275" y="36" type="curve" smooth="yes"/>
      <point x="195" y="28" type="line" smooth="yes"/>
      <point x="179" y="26"/>
      <point x="176" y="31"/>
      <point x="176" y="53" type="curve" smooth="yes"/>
      <point x="176" y="584" type="line" smooth="yes"/>
      <point x="176" y="610"/>
      <point x="159" y="634"/>
      <point x="129" y="640" type="curve" smooth="yes"/>
      <point x="116" y="643"/>
      <point x="68" y="649"/>
      <point x="64" y="663" type="curve" smooth="yes"/>
      <point x="60" y="676"/>
      <point x="59" y="698"/>
      <point x="80" y="719" type="curve" smooth="yes"/>
      <point x="86" y="725"/>
      <point x="104" y="740"/>
    </contour>
    <contour>
      <point x="679" y="513" type="curve" smooth="yes"/>
      <point x="715" y="543"/>
      <point x="753" y="569"/>
      <point x="780" y="580" type="curve" smooth="yes"/>
      <point x="809" y="593"/>
      <point x="820" y="586"/>
      <point x="826" y="569" type="curve" smooth="yes"/>
      <point x="836" y="543"/>
      <point x="829" y="508"/>
      <point x="813" y="494" type="curve" smooth="yes"/>
      <point x="791" y="476"/>
      <point x="770" y="468"/>
      <point x="751" y="464" type="curve" smooth="yes"/>
      <point x="733" y="461"/>
      <point x="713" y="463"/>
      <point x="696" y="468" type="curve" smooth="yes"/>
      <point x="668" y="478"/>
      <point x="660" y="498"/>
    </contour>
  </outline>
  <guideline angle="0" x="0" y="792.5"/>
  <guideline angle="0" x="0" y="21.25"/>
</glyph>
<glyph name="O" format="2">
  <advance width="979"/>
  <unicode hex="004F"/>
  <outline>
    <contour>
      <point x="68" y="391" type="curve" smooth="yes"/>
      <point x="68" y="178"/>
      <point x="221" y="0"/>
      <point x="469" y="0" type="curve" smooth="yes"/>
      <point x="740" y="0"/>
      <point x="889" y="211"/>
      <point x="889" y="393" type="curve" smooth="yes"/>
      <point x="889" y="574"/>
      <point x="791" y="694"/>
      <point x="670" y="746" type="curve" smooth="yes"/>
      <point x="661" y="750"/>
      <point x="655" y="750"/>
      <point x="649" y="750" type="curve" smooth="yes"/>
      <point x="594" y="750" type="line" smooth="yes"/>
      <point x="588" y="750"/>
      <point x="579" y="750"/>
      <point x="574" y="746" type="curve" smooth="yes"/>
      <point x="543" y="721" type="line" smooth="yes"/>
      <point x="526" y="709"/>
      <point x="541" y="698"/>
      <point x="555" y="693" type="curve" smooth="yes"/>
      <point x="666" y="654"/>
      <point x="765" y="560"/>
      <point x="765" y="393" type="curve" smooth="yes"/>
      <point x="765" y="223"/>
      <point x="615" y="113"/>
      <point x="469" y="113" type="curve" smooth="yes"/>
      <point x="333" y="113"/>
      <point x="179" y="209"/>
      <point x="179" y="399" type="curve" smooth="yes"/>
      <point x="179" y="551"/>
      <point x="278" y="643"/>
      <point x="324" y="661" type="curve" smooth="yes"/>
      <point x="348" y="671"/>
      <point x="351" y="673"/>
      <point x="360" y="673" type="curve" smooth="yes"/>
      <point x="371" y="673"/>
      <point x="374" y="670"/>
      <point x="374" y="664" type="curve" smooth="yes"/>
      <point x="374" y="630" type="line" smooth="yes"/>
      <point x="374" y="624"/>
      <point x="369" y="619"/>
      <point x="354" y="609" type="curve" smooth="yes"/>
      <point x="298" y="571"/>
      <point x="236" y="508"/>
      <point x="236" y="408" type="curve" smooth="yes"/>
      <point x="236" y="284"/>
      <point x="330" y="176"/>
      <point x="473" y="176" type="curve" smooth="yes"/>
      <point x="528" y="176"/>
      <point x="575" y="193"/>
      <point x="595" y="213" type="curve" smooth="yes"/>
      <point x="603" y="220"/>
      <point x="605" y="226"/>
      <point x="593" y="230" type="curve" smooth="yes"/>
      <point x="524" y="254" type="line" smooth="yes"/>
      <point x="514" y="258"/>
      <point x="509" y="256"/>
      <point x="505" y="255" type="curve" smooth="yes"/>
      <point x="496" y="251"/>
      <point x="489" y="249"/>
      <point x="471" y="249" type="curve" smooth="yes"/>
      <point x="368" y="249"/>
      <point x="318" y="335"/>
      <point x="318" y="403" type="curve" smooth="yes"/>
      <point x="318" y="463"/>
      <point x="358" y="530"/>
      <point x="431" y="556" type="curve" smooth="yes"/>
      <point x="451" y="564"/>
      <point x="455" y="568"/>
      <point x="455" y="578" type="curve" smooth="yes"/>
      <point x="455" y="803" type="line" smooth="yes"/>
      <point x="455" y="811"/>
      <point x="448" y="811"/>
      <point x="440" y="811" type="curve" smooth="yes"/>
      <point x="249" y="811"/>
      <point x="68" y="616"/>
    </contour>
    <contour>
      <point x="391" y="401" type="curve" smooth="yes"/>
      <point x="391" y="358"/>
      <point x="426" y="321"/>
      <point x="470" y="321" type="curve" smooth="yes"/>
      <point x="514" y="321"/>
      <point x="551" y="358"/>
      <point x="551" y="401" type="curve" smooth="yes"/>
      <point x="551" y="445"/>
      <point x="514" y="480"/>
      <point x="470" y="480" type="curve" smooth="yes"/>
      <point x="426" y="480"/>
      <point x="391" y="445"/>
    </contour>
  </outline>
  <guideline angle="0" x="0" y="835"/>
  <guideline angle="0" x="0" y="20"/>
</glyph>
<glyph name="Q" format="2">
  <advance width="834"/>
  <unicode hex="0051"/>
  <outline>
    <contour>
      <point x="86.6019" y="580.85" type="curve" smooth="yes"/>
      <point x="151.524" y="580.85" type="line" smooth="yes"/>
      <point x="166.815" y="580.85"/>
      <point x="171.184" y="574.588"/>
      <point x="171.184" y="563.064" type="curve" smooth="yes"/>
      <point x="171.184" y="450.85" type="line" smooth="yes"/>
      <point x="171.184" y="433.901"/>
      <point x="181.574" y="427.463"/>
      <point x="194.405" y="427.463" type="curve" smooth="yes"/>
      <point x="746.665" y="427.463" type="line" smooth="yes"/>
      <point x="761.956" y="427.463"/>
      <point x="766.325" y="421.191"/>
      <point x="766.325" y="409.667" type="curve" smooth="yes"/>
      <point x="766.325" y="-1.98097" type="line" smooth="yes"/>
      <point x="766.325" y="-21.874"/>
      <point x="755.403" y="-29.1944"/>
      <point x="740.102" y="-29.1944" type="curve" smooth="yes"/>
      <point x="680.656" y="-29.1944" type="line" smooth="yes"/>
      <point x="660.986" y="-29.1944"/>
      <point x="655.53" y="-26.0585"/>
      <point x="655.53" y="-6.1654" type="curve" smooth="yes"/>
      <point x="655.53" y="300.979" type="line" smooth="yes"/>
      <point x="655.53" y="313.583"/>
      <point x="650.027" y="320.308"/>
      <point x="636.201" y="320.308" type="curve" smooth="yes"/>
      <point x="84.5437" y="320.308" type="line" smooth="yes"/>
      <point x="64.8739" y="320.308"/>
      <point x="60.4177" y="323.444"/>
      <point x="60.4177" y="343.337" type="curve" smooth="yes"/>
      <point x="60.3886" y="557.831" type="line" smooth="yes"/>
      <point x="60.3886" y="573.539"/>
      <point x="70.2137" y="580.85"/>
    </contour>
    <contour>
      <point x="88.5437" y="782.8" type="curve" smooth="yes"/>
      <point x="749.578" y="782.8" type="line" smooth="yes"/>
      <point x="764.869" y="782.8"/>
      <point x="769.238" y="776.528"/>
      <point x="769.238" y="765.004" type="curve" smooth="yes"/>
      <point x="769.238" y="695.092" type="line" smooth="yes"/>
      <point x="769.238" y="675.199"/>
      <point x="758.316" y="667.878"/>
      <point x="743.015" y="667.878" type="curve" smooth="yes"/>
      <point x="87.4563" y="667.878" type="line" smooth="yes"/>
      <point x="67.7865" y="667.878"/>
      <point x="62.3303" y="671.014"/>
      <point x="62.3303" y="690.907" type="curve" smooth="yes"/>
      <point x="62.3303" y="759.771" type="line" smooth="yes"/>
      <point x="62.3303" y="775.48"/>
      <point x="72.1554" y="782.8"/>
    </contour>
    <contour>
      <point x="77.1748" y="-23.7963" type="line" smooth="yes"/>
      <point x="63.8642" y="-23.7963"/>
      <point x="56.3406" y="-10.9232"/>
      <point x="66.5244" y="0.164705" type="curve" smooth="yes"/>
      <point x="246.203" y="195.794" type="line" smooth="yes"/>
      <point x="255.118" y="205.501"/>
      <point x="264.503" y="208.804"/>
      <point x="276.814" y="195.794" type="curve" smooth="yes"/>
      <point x="464.463" y="-2.49547" type="line" smooth="yes"/>
      <point x="476.774" y="-15.5046"/>
      <point x="472.454" y="-23.7963"/>
      <point x="455.153" y="-23.7963" type="curve" smooth="yes"/>
    </contour>
  </outline>
  <guideline angle="0" x="0" y="755"/>
  <guideline angle="0" x="0" y="-1"/>
</glyph>
<glyph name="R" format="2">
  <advance width="1010"/>
  <unicode hex="0052"/>
  <outline>
    <contour>
      <point x="206" y="279" type="line"/>
      <point x="180" y="218"/>
      <point x="220" y="135"/>
      <point x="298" y="131" type="curve" smooth="yes"/>
      <point x="318" y="130"/>
      <point x="336" y="130"/>
      <point x="353" y="144" type="curve" smooth="yes"/>
      <point x="371" y="159"/>
      <point x="376" y="171"/>
      <point x="385" y="193" type="curve" smooth="yes"/>
      <point x="540" y="564" type="line" smooth="yes"/>
      <point x="551" y="590"/>
      <point x="534" y="603"/>
      <point x="511" y="604" type="curve" smooth="yes"/>
      <point x="356" y="609" type="line" smooth="yes"/>
      <point x="340" y="609"/>
      <point x="340" y="621"/>
      <point x="344" y="631" type="curve" smooth="yes"/>
      <point x="379" y="735" type="line" smooth="yes"/>
      <point x="381" y="743"/>
      <point x="389" y="749"/>
      <point x="396" y="749" type="curve" smooth="yes"/>
      <point x="686" y="749" type="line" smooth="yes"/>
      <point x="703" y="749"/>
      <point x="705" y="744"/>
      <point x="703" y="738" type="curve" smooth="yes"/>
      <point x="448" y="70" type="line" smooth="yes"/>
      <point x="441" y="53"/>
      <point x="433" y="44"/>
      <point x="431" y="26" type="curve" smooth="yes"/>
      <point x="430" y="10" type="line" smooth="yes"/>
      <point x="430" y="5"/>
      <point x="426" y="3"/>
      <point x="421" y="3" type="curve" smooth="yes"/>
      <point x="206" y="3" type="line" smooth="yes"/>
      <point x="199" y="3"/>
      <point x="196" y="4"/>
      <point x="184" y="14" type="curve" smooth="yes"/>
      <point x="133" y="58"/>
      <point x="94" y="106"/>
      <point x="94" y="184" type="curve" smooth="yes"/>
      <point x="94" y="224"/>
      <point x="109" y="289"/>
      <point x="119" y="311" type="curve" smooth="yes"/>
      <point x="123" y="320"/>
      <point x="130" y="319"/>
      <point x="138" y="315" type="curve" smooth="yes"/>
    </contour>
    <contour>
      <point x="88" y="701" type="line" smooth="yes"/>
      <point x="61" y="741"/>
      <point x="98" y="753"/>
      <point x="110" y="753" type="curve" smooth="yes"/>
      <point x="286" y="753" type="line" smooth="yes"/>
      <point x="301" y="753"/>
      <point x="310" y="744"/>
      <point x="301" y="724" type="curve" smooth="yes"/>
      <point x="233" y="569" type="line" smooth="yes"/>
      <point x="224" y="550"/>
      <point x="190" y="546"/>
      <point x="180" y="561" type="curve" smooth="yes"/>
    </contour>
    <contour>
      <point x="929" y="753" type="line" smooth="yes"/>
      <point x="944" y="753"/>
      <point x="954" y="750"/>
      <point x="954" y="726" type="curve" smooth="yes"/>
      <point x="954" y="718"/>
      <point x="953" y="706"/>
      <point x="944" y="683" type="curve" smooth="yes"/>
      <point x="684" y="14" type="line" smooth="yes"/>
      <point x="679" y="3"/>
      <point x="669" y="-3"/>
      <point x="659" y="-3" type="curve" smooth="yes"/>
      <point x="568" y="-3" type="line" smooth="yes"/>
      <point x="554" y="-3"/>
      <point x="550" y="25"/>
      <point x="556" y="41" type="curve" smooth="yes"/>
      <point x="824" y="739" type="line" smooth="yes"/>
      <point x="829" y="750"/>
      <point x="838" y="753"/>
      <point x="846" y="753" type="curve" smooth="yes"/>
    </contour>
  </outline>
  <guideline angle="0" x="0" y="790"/>
  <guideline angle="0" x="0" y="28.75"/>
</glyph>
<glyph name="X" format="2">
  <advance width="945"/>
  <unicode hex="0058"/>
  <outline>
    <contour>
      <point x="59" y="640" type="line"/>
      <point x="391" y="640" type="line" smooth="yes"/>
      <point x="416" y="640"/>
      <point x="425" y="619"/>
      <point x="416" y="600" type="curve" smooth="yes"/>
      <point x="145" y="38" type="line" smooth="yes"/>
      <point x="136" y="19"/>
      <point x="145" y="4"/>
      <point x="159" y="4" type="curve" smooth="yes"/>
      <point x="254" y="4" type="line" smooth="yes"/>
      <point x="259" y="4"/>
      <point x="261" y="6"/>
      <point x="263" y="10" type="curve" smooth="yes"/>
      <point x="424" y="330" type="line" smooth="yes"/>
      <point x="430" y="343"/>
      <point x="448" y="343"/>
      <point x="456" y="330" type="curve" smooth="yes"/>
      <point x="700" y="9" type="line" smooth="yes"/>
      <point x="704" y="4"/>
      <point x="709" y="0"/>
      <point x="718" y="0" type="curve" smooth="yes"/>
      <point x="840" y="0" type="line" smooth="yes"/>
      <point x="851" y="0"/>
      <point x="859" y="15"/>
      <point x="851" y="26" type="curve" smooth="yes"/>
      <point x="509" y="484" type="line" smooth="yes"/>
      <point x="503" y="493"/>
      <point x="505" y="500"/>
      <point x="508" y="506" type="curve" smooth="yes"/>
      <point x="590" y="683" type="line" smooth="yes"/>
      <point x="594" y="691"/>
      <point x="594" y="705"/>
      <point x="590" y="715" type="curve" smooth="yes"/>
      <point x="575" y="751" type="line" smooth="yes"/>
      <point x="573" y="759"/>
      <point x="569" y="761"/>
      <point x="561" y="761" type="curve" smooth="yes"/>
      <point x="134" y="761" type="line" smooth="yes"/>
      <point x="128" y="761"/>
      <point x="123" y="760"/>
      <point x="120" y="755" type="curve" smooth="yes"/>
    </contour>
    <contour>
      <point x="678" y="529" type="curve" smooth="yes"/>
      <point x="678" y="478"/>
      <point x="719" y="435"/>
      <point x="769" y="435" type="curve" smooth="yes"/>
      <point x="819" y="435"/>
      <point x="860" y="478"/>
      <point x="860" y="529" type="curve" smooth="yes"/>
      <point x="860" y="581"/>
      <point x="819" y="624"/>
      <point x="769" y="624" type="curve" smooth="yes"/>
      <point x="719" y="624"/>
      <point x="678" y="581"/>
    </contour>
  </outline>
  <guideline angle="0" x="0" y="761.25"/>
  <guideline angle="0" x="0" y="0"/>
</glyph>
<glyph name="Y" format="2">
  <advance width="820"/>
  <unicode hex="0059"/>
  <outline>
    <contour>
      <point x="69" y="395" type="curve" smooth="yes"/>
      <point x="69" y="441"/>
      <point x="100" y="472"/>
      <point x="146" y="472" type="curve" smooth="yes"/>
      <point x="192" y="472"/>
      <point x="223" y="441"/>
      <point x="223" y="395" type="curve" smooth="yes"/>
      <point x="223" y="349"/>
      <point x="192" y="318"/>
      <point x="146" y="318" type="curve" smooth="yes"/>
      <point x="100" y="318"/>
      <point x="69" y="349"/>
    </contour>
    <contour>
      <point x="90.993" y="44.9255" type="curve" smooth="yes"/>
      <point x="90.9032" y="-0.941097"/>
      <point x="101.075" y="-12.0642"/>
      <point x="142.651" y="-12.0592" type="curve" smooth="yes"/>
      <point x="170.957" y="-12.0558"/>
      <point x="183.892" y="-8.80415"/>
      <point x="183.892" y="22.3656" type="curve" smooth="yes"/>
      <point x="183.892" y="141.477"/>
      <point x="281.278" y="222.978"/>
      <point x="360.048" y="223" type="curve" smooth="yes"/>
      <point x="527.223" y="223.046" type="line" smooth="yes"/>
      <point x="576.306" y="223.06"/>
      <point x="582.688" y="171.501"/>
      <point x="582.688" y="115.501" type="curve" smooth="yes"/>
      <point x="582.688" y="42.5009"/>
      <point x="607.486" y="18.5323"/>
      <point x="671" y="-39" type="curve" smooth="yes"/>
      <point x="693.11" y="-59.0283"/>
      <point x="705" y="-57"/>
      <point x="717" y="-48" type="curve" smooth="yes"/>
      <point x="729" y="-39"/>
      <point x="745.651" y="-20.9222"/>
      <point x="752.254" y="-12.9434" type="curve" smooth="yes"/>
      <point x="771.7" y="10.5549"/>
      <point x="774.637" y="31.8341"/>
      <point x="750" y="50" type="curve" smooth="yes"/>
      <point x="720.034" y="72.0949"/>
      <point x="677" y="105"/>
      <point x="677" y="195" type="curve" smooth="yes"/>
      <point x="677" y="538" type="line" smooth="yes"/>
      <point x="677" y="587"/>
      <point x="661" y="633"/>
      <point x="595" y="633" type="curve" smooth="yes"/>
      <point x="441" y="633" type="line" smooth="yes"/>
      <point x="430.234" y="633"/>
      <point x="421" y="637.01"/>
      <point x="421" y="649.01" type="curve" smooth="yes"/>
      <point x="421" y="746" type="line" smooth="yes"/>
      <point x="421" y="757.365"/>
      <point x="416.768" y="770.067"/>
      <point x="406" y="777" type="curve" smooth="yes"/>
      <point x="333" y="824" type="line" smooth="yes"/>
      <point x="327.017" y="827.852"/>
      <point x="320" y="822"/>
      <point x="320" y="814" type="curve" smooth="yes"/>
      <point x="320" y="704" type="line" smooth="yes"/>
      <point x="320" y="663.729"/>
      <point x="311" y="631"/>
      <point x="252" y="631" type="curve" smooth="yes"/>
      <point x="147" y="631" type="line" smooth="yes"/>
      <point x="132.106" y="631"/>
      <point x="120" y="625"/>
      <point x="120" y="606" type="curve" smooth="yes"/>
      <point x="120" y="555" type="line" smooth="yes"/>
      <point x="120" y="540.65"/>
      <point x="124" y="529"/>
      <point x="146" y="529" type="curve" smooth="yes"/>
      <point x="283" y="529" type="line" smooth="yes"/>
      <point x="303.402" y="529"/>
      <point x="320" y="523"/>
      <point x="320" y="486" type="curve" smooth="yes"/>
      <point x="320" y="355" type="line" smooth="yes"/>
      <point x="320" y="329.901"/>
      <point x="307.149" y="315.067"/>
      <point x="265.911" y="297.886" type="curve" smooth="yes"/>
      <point x="164.375" y="255.585"/>
      <point x="91.2331" y="167.641"/>
    </contour>
    <contour>
      <point x="550" y="528" type="line" smooth="yes"/>
      <point x="558.867" y="528"/>
      <point x="569" y="517.867"/>
      <point x="569" y="509" type="curve" smooth="yes"/>
      <point x="569" y="348" type="line" smooth="yes"/>
      <point x="569" y="338.188"/>
      <point x="556.812" y="328"/>
      <point x="547" y="328" type="curve" smooth="yes"/>
      <point x="454" y="328" type="line" smooth="yes"/>
      <point x="445.363" y="328"/>
      <point x="436" y="338.363"/>
      <point x="436" y="347" type="curve" smooth="yes"/>
      <point x="436" y="506" type="line" smooth="yes"/>
      <point x="436" y="515.38"/>
      <point x="444.62" y="528"/>
      <point x="454" y="528" type="curve" smooth="yes"/>
    </contour>
  </outline>
  <guideline angle="0" x="0" y="761"/>
  <guideline angle="0" x="0" y="1"/>
</glyph>
<glyph name="a" format="2">
  <advance width="1199"/>
  <unicode hex="0061"/>
  <outline>
    <contour>
      <point x="63.5864" y="756.255" type="line"/>
      <point x="104.353" y="757.328"/>
      <point x="256.69" y="757.328"/>
      <point x="300.675" y="756.255" type="curve"/>
      <point x="300.675" y="643.611" type="line"/>
      <point x="256.69" y="640.393"/>
      <point x="103.28" y="640.393"/>
      <point x="63.5864" y="643.611" type="curve"/>
    </contour>
    <contour>
      <point x="886.424" y="756.255" type="line"/>
      <point x="934.7" y="757.328"/>
      <point x="1069.87" y="757.328"/>
      <point x="1123.51" y="756.255" type="curve"/>
      <point x="1123.51" y="643.611" type="line"/>
      <point x="1066.65" y="640.393"/>
      <point x="930.409" y="640.393"/>
      <point x="886.424" y="643.611" type="curve"/>
    </contour>
    <contour>
      <point x="492.706" y="655.412" type="line"/>
      <point x="492.706" y="714.416"/>
      <point x="520.599" y="746.6"/>
      <point x="586.04" y="746.6" type="curve" smooth="yes"/>
      <point x="651.481" y="746.6"/>
      <point x="682.592" y="714.416"/>
      <point x="682.592" y="655.412" type="curve"/>
    </contour>
    <contour>
      <point x="481.978" y="321.771" type="line"/>
      <point x="481.978" y="386.139"/>
      <point x="506.653" y="436.561"/>
      <point x="592.477" y="436.561" type="curve" smooth="yes"/>
      <point x="676.155" y="436.561"/>
      <point x="708.339" y="388.285"/>
      <point x="708.339" y="321.771" type="curve"/>
    </contour>
    <contour>
      <point x="68.9504" y="495.565" type="curve"/>
      <point x="64.6592" y="462.308"/>
      <point x="64.6592" y="425.833"/>
      <point x="70.0232" y="395.794" type="curve"/>
      <point x="102.207" y="391.503"/>
      <point x="145.119" y="392.576"/>
      <point x="173.012" y="392.576" type="curve" smooth="yes"/>
      <point x="194.468" y="392.576"/>
      <point x="204.123" y="386.139"/>
      <point x="204.123" y="355.028" type="curve" smooth="yes"/>
      <point x="204.123" y="101.496"/>
      <point x="350.372" y="-35.4712"/>
      <point x="591.404" y="-35.4712" type="curve" smooth="yes"/>
      <point x="828.493" y="-35.4712"/>
      <point x="987.267" y="117.939"/>
      <point x="987.267" y="360.392" type="curve" smooth="yes"/>
      <point x="987.267" y="385.066"/>
      <point x="996.922" y="395.794"/>
      <point x="1010.87" y="395.794" type="curve" smooth="yes"/>
      <point x="1116" y="395.794" type="line"/>
      <point x="1120.29" y="436.561"/>
      <point x="1121.37" y="467.672"/>
      <point x="1116" y="497.71" type="curve"/>
      <point x="1098.84" y="500.929"/>
      <point x="1068.8" y="500.929"/>
      <point x="1020.52" y="500.929" type="curve" smooth="yes"/>
      <point x="928.263" y="500.929" type="line" smooth="yes"/>
      <point x="903.589" y="500.929"/>
      <point x="896.079" y="490.201"/>
      <point x="896.079" y="466.599" type="curve" smooth="yes"/>
      <point x="896.079" y="402.231" type="line" smooth="yes"/>
      <point x="896.079" y="218.782"/>
      <point x="793.09" y="68.5904"/>
      <point x="597.841" y="68.5904" type="curve" smooth="yes"/>
      <point x="442.285" y="68.5904"/>
      <point x="313.549" y="165.142"/>
      <point x="301.748" y="327.135" type="curve" smooth="yes"/>
      <point x="295.311" y="425.833"/>
      <point x="297.457" y="456.944"/>
      <point x="297.457" y="467.672" type="curve" smooth="yes"/>
      <point x="297.457" y="492.346"/>
      <point x="285.656" y="500.929"/>
      <point x="263.127" y="500.929" type="curve" smooth="yes"/>
      <point x="197.686" y="500.929"/>
      <point x="87.188" y="500.929"/>
    </contour>
  </outline>
</glyph>
<glyph name="k" format="2">
  <advance width="774"/>
  <unicode hex="006B"/>
  <outline>
    <contour>
      <point x="241" y="640" type="curve" smooth="yes"/>
      <point x="305" y="704" type="line" smooth="yes"/>
      <point x="313" y="711"/>
      <point x="321" y="716"/>
      <point x="329" y="718" type="curve" smooth="yes"/>
      <point x="458" y="734" type="line" smooth="yes"/>
      <point x="469" y="735"/>
      <point x="479" y="735"/>
      <point x="488" y="735" type="curve" smooth="yes"/>
      <point x="624" y="735" type="line" smooth="yes"/>
      <point x="631" y="735"/>
      <point x="634" y="733"/>
      <point x="638" y="725" type="curve" smooth="yes"/>
      <point x="679" y="635" type="line" smooth="yes"/>
      <point x="686" y="618"/>
      <point x="680" y="609"/>
      <point x="668" y="609" type="curve" smooth="yes"/>
      <point x="591" y="609" type="line"/>
      <point x="598" y="-48" type="line" smooth="yes"/>
      <point x="598" y="-64"/>
      <point x="579" y="-76"/>
      <point x="563" y="-68" type="curve" smooth="yes"/>
      <point x="484" y="-29" type="line" smooth="yes"/>
      <point x="470" y="-23"/>
      <point x="468" y="-14"/>
      <point x="468" y="-1" type="curve" smooth="yes"/>
      <point x="486" y="608" type="line"/>
      <point x="250" y="608" type="line" smooth="yes"/>
      <point x="229" y="608"/>
      <point x="225" y="624"/>
    </contour>
    <contour>
      <point x="179" y="510" type="line"/>
      <point x="358" y="510" type="line" smooth="yes"/>
      <point x="398" y="510"/>
      <point x="408" y="474"/>
      <point x="391" y="444" type="curve" smooth="yes"/>
      <point x="156" y="25" type="line" smooth="yes"/>
      <point x="143" y="0"/>
      <point x="121" y="13"/>
      <point x="116" y="29" type="curve" smooth="yes"/>
      <point x="85" y="119" type="line" smooth="yes"/>
      <point x="78" y="140"/>
      <point x="79" y="163"/>
      <point x="94" y="184" type="curve" smooth="yes"/>
      <point x="240" y="390" type="line"/>
      <point x="96" y="390" type="line" smooth="yes"/>
      <point x="70" y="390"/>
      <point x="56" y="400"/>
      <point x="59" y="425" type="curve" smooth="yes"/>
      <point x="99" y="766" type="line" smooth="yes"/>
      <point x="101" y="789"/>
      <point x="118" y="808"/>
      <point x="140" y="808" type="curve" smooth="yes"/>
      <point x="163" y="808"/>
      <point x="180" y="788"/>
      <point x="180" y="771" type="curve" smooth="yes"/>
    </contour>
  </outline>
  <guideline angle="0" x="0" y="13.75"/>
  <guideline angle="0" x="0" y="815"/>
</glyph>
<glyph name="m" format="2">
  <advance width="1098"/>
  <unicode hex="006D"/>
  <outline>
    <contour>
      <point x="500" y="224" type="curve" smooth="yes"/>
      <point x="376" y="73" type="line" smooth="yes"/>
      <point x="369" y="64"/>
      <point x="370" y="61"/>
      <point x="373" y="56" type="curve" smooth="yes"/>
      <point x="399" y="9" type="line" smooth="yes"/>
      <point x="404" y="0"/>
      <point x="408" y="0"/>
      <point x="414" y="0" type="curve" smooth="yes"/>
      <point x="669" y="0" type="line" smooth="yes"/>
      <point x="685" y="0"/>
      <point x="681" y="4"/>
      <point x="684" y="9" type="curve" smooth="yes"/>
      <point x="700" y="46" type="line" smooth="yes"/>
      <point x="703" y="53"/>
      <point x="700" y="59"/>
      <point x="696" y="64" type="curve" smooth="yes"/>
      <point x="574" y="225" type="line" smooth="yes"/>
      <point x="570" y="230"/>
      <point x="568" y="233"/>
      <point x="563" y="233" type="curve" smooth="yes"/>
      <point x="515" y="233" type="line" smooth="yes"/>
      <point x="509" y="233"/>
      <point x="505" y="230"/>
    </contour>
    <contour>
      <point x="521" y="153" type="line" smooth="yes"/>
      <point x="524" y="156"/>
      <point x="525" y="156"/>
      <point x="529" y="156" type="curve" smooth="yes"/>
      <point x="540" y="156" type="line" smooth="yes"/>
      <point x="544" y="156"/>
      <point x="548" y="154"/>
      <point x="550" y="150" type="curve" smooth="yes"/>
      <point x="605" y="84" type="line" smooth="yes"/>
      <point x="609" y="80"/>
      <point x="609" y="78"/>
      <point x="606" y="73" type="curve" smooth="yes"/>
      <point x="601" y="63" type="line" smooth="yes"/>
      <point x="599" y="58"/>
      <point x="595" y="56"/>
      <point x="590" y="56" type="curve" smooth="yes"/>
      <point x="473" y="56" type="line" smooth="yes"/>
      <point x="468" y="56"/>
      <point x="466" y="58"/>
      <point x="465" y="60" type="curve" smooth="yes"/>
      <point x="461" y="68" type="line" smooth="yes"/>
      <point x="460" y="71"/>
      <point x="461" y="74"/>
      <point x="464" y="78" type="curve" smooth="yes"/>
    </contour>
    <contour>
      <point x="409" y="256" type="curve" smooth="yes"/>
      <point x="383" y="289" type="line" smooth="yes"/>
      <point x="376" y="296"/>
      <point x="369" y="295"/>
      <point x="363" y="293" type="curve" smooth="yes"/>
      <point x="250" y="245" type="line"/>
      <point x="216" y="286"/>
      <point x="183" y="350"/>
      <point x="183" y="465" type="curve" smooth="yes"/>
      <point x="183" y="580"/>
      <point x="240" y="675"/>
      <point x="311" y="734" type="curve" smooth="yes"/>
      <point x="324" y="744"/>
      <point x="324" y="758"/>
      <point x="315" y="761" type="curve" smooth="yes"/>
      <point x="260" y="786" type="line" smooth="yes"/>
      <point x="248" y="791"/>
      <point x="231" y="789"/>
      <point x="221" y="780" type="curve" smooth="yes"/>
      <point x="149" y="715"/>
      <point x="76" y="586"/>
      <point x="76" y="433" type="curve" smooth="yes"/>
      <point x="76" y="270"/>
      <point x="158" y="135"/>
      <point x="294" y="89" type="curve" smooth="yes"/>
      <point x="306" y="85"/>
      <point x="313" y="90"/>
      <point x="315" y="99" type="curve" smooth="yes"/>
      <point x="335" y="155"/>
      <point x="366" y="198"/>
      <point x="394" y="221" type="curve" smooth="yes"/>
      <point x="413" y="238"/>
      <point x="416" y="248"/>
    </contour>
    <contour>
      <point x="666" y="256" type="line" smooth="yes"/>
      <point x="659" y="248"/>
      <point x="661" y="236"/>
      <point x="680" y="219" type="curve" smooth="yes"/>
      <point x="709" y="194"/>
      <point x="734" y="151"/>
      <point x="754" y="95" type="curve" smooth="yes"/>
      <point x="756" y="86"/>
      <point x="771" y="80"/>
      <point x="785" y="80" type="curve" smooth="yes"/>
      <point x="904" y="85"/>
      <point x="990" y="296"/>
      <point x="990" y="468" type="curve" smooth="yes"/>
      <point x="990" y="609"/>
      <point x="931" y="723"/>
      <point x="845" y="788" type="curve" smooth="yes"/>
      <point x="835" y="795"/>
      <point x="820" y="796"/>
      <point x="815" y="794" type="curve" smooth="yes"/>
      <point x="750" y="763" type="line" smooth="yes"/>
      <point x="741" y="759"/>
      <point x="745" y="746"/>
      <point x="758" y="736" type="curve" smooth="yes"/>
      <point x="829" y="678"/>
      <point x="893" y="580"/>
      <point x="893" y="451" type="curve" smooth="yes"/>
      <point x="893" y="350"/>
      <point x="854" y="289"/>
      <point x="820" y="248" type="curve"/>
      <point x="713" y="293" type="line" smooth="yes"/>
      <point x="706" y="295"/>
      <point x="699" y="296"/>
      <point x="693" y="289" type="curve" smooth="yes"/>
    </contour>
    <contour>
      <point x="448" y="434" type="curve" smooth="yes"/>
      <point x="448" y="383"/>
      <point x="485" y="340"/>
      <point x="536" y="340" type="curve" smooth="yes"/>
      <point x="586" y="340"/>
      <point x="626" y="383"/>
      <point x="626" y="434" type="curve" smooth="yes"/>
      <point x="626" y="485"/>
      <point x="589" y="528"/>
      <point x="539" y="528" type="curve" smooth="yes"/>
      <point x="488" y="528"/>
      <point x="448" y="485"/>
    </contour>
  </outline>
  <guideline angle="0" x="0" y="791.25"/>
  <guideline angle="0" x="0" y="0"/>
</glyph>
<glyph name="n" format="2">
  <advance width="899"/>
  <unicode hex="006E"/>
  <outline>
    <contour>
      <point x="156" y="778" type="line" smooth="yes"/>
      <point x="166" y="785"/>
      <point x="171" y="787"/>
      <point x="192" y="787" type="curve" smooth="yes"/>
      <point x="381" y="787" type="line" smooth="yes"/>
      <point x="391" y="787"/>
      <point x="395" y="779"/>
      <point x="386" y="771" type="curve" smooth="yes"/>
      <point x="307" y="708" type="line" smooth="yes"/>
      <point x="290" y="695"/>
      <point x="287" y="678"/>
      <point x="287" y="657" type="curve" smooth="yes"/>
      <point x="287" y="524" type="line" smooth="yes"/>
      <point x="287" y="503"/>
      <point x="290" y="496"/>
      <point x="313" y="508" type="curve" smooth="yes"/>
      <point x="693" y="712" type="line" smooth="yes"/>
      <point x="710" y="721"/>
      <point x="719" y="722"/>
      <point x="722" y="714" type="curve" smooth="yes"/>
      <point x="733" y="681"/>
      <point x="707" y="638"/>
      <point x="679" y="621" type="curve" smooth="yes"/>
      <point x="410" y="458" type="line" smooth="yes"/>
      <point x="388" y="445"/>
      <point x="388" y="438"/>
      <point x="410" y="438" type="curve" smooth="yes"/>
      <point x="584" y="438" type="line" smooth="yes"/>
      <point x="611" y="438"/>
      <point x="626" y="428"/>
      <point x="634" y="403" type="curve" smooth="yes"/>
      <point x="641" y="376"/>
      <point x="640" y="360"/>
      <point x="640" y="341" type="curve" smooth="yes"/>
      <point x="640" y="150" type="line" smooth="yes"/>
      <point x="640" y="128"/>
      <point x="651" y="132"/>
      <point x="669" y="132" type="curve" smooth="yes"/>
      <point x="787" y="132" type="line" smooth="yes"/>
      <point x="801" y="132"/>
      <point x="801" y="129"/>
      <point x="801" y="119" type="curve" smooth="yes"/>
      <point x="801" y="100" type="line" smooth="yes"/>
      <point x="801" y="95"/>
      <point x="799" y="90"/>
      <point x="794" y="86" type="curve" smooth="yes"/>
      <point x="737" y="45" type="line" smooth="yes"/>
      <point x="725" y="37"/>
      <point x="721" y="34"/>
      <point x="703" y="34" type="curve" smooth="yes"/>
      <point x="429" y="33" type="line"/>
      <point x="429" y="68" type="line" smooth="yes"/>
      <point x="429" y="75"/>
      <point x="430" y="77"/>
      <point x="435" y="80" type="curve" smooth="yes"/>
      <point x="513" y="127" type="line" smooth="yes"/>
      <point x="523" y="133"/>
      <point x="525" y="137"/>
      <point x="525" y="148" type="curve" smooth="yes"/>
      <point x="525" y="313" type="line" smooth="yes"/>
      <point x="525" y="333"/>
      <point x="510" y="353"/>
      <point x="491" y="353" type="curve" smooth="yes"/>
      <point x="320" y="353" type="line" smooth="yes"/>
      <point x="297" y="353"/>
      <point x="287" y="342"/>
      <point x="287" y="315" type="curve" smooth="yes"/>
      <point x="287" y="45" type="line" smooth="yes"/>
      <point x="287" y="35"/>
      <point x="279" y="31"/>
      <point x="271" y="31" type="curve" smooth="yes"/>
      <point x="156" y="30" type="line"/>
      <point x="162" y="33"/>
      <point x="172" y="41"/>
      <point x="172" y="55" type="curve" smooth="yes"/>
      <point x="172" y="615" type="line" smooth="yes"/>
      <point x="172" y="624"/>
      <point x="170" y="631"/>
      <point x="155" y="634" type="curve" smooth="yes"/>
      <point x="68" y="654" type="line" smooth="yes"/>
      <point x="62" y="655"/>
      <point x="58" y="661"/>
      <point x="58" y="667" type="curve" smooth="yes"/>
      <point x="58" y="695" type="line" smooth="yes"/>
      <point x="58" y="701"/>
      <point x="62" y="705"/>
      <point x="66" y="709" type="curve" smooth="yes"/>
    </contour>
    <contour>
      <point x="652" y="519" type="curve" smooth="yes"/>
      <point x="790" y="578" type="line" smooth="yes"/>
      <point x="797" y="581"/>
      <point x="804" y="583"/>
      <point x="805" y="576" type="curve" smooth="yes"/>
      <point x="812" y="546"/>
      <point x="806" y="511"/>
      <point x="787" y="491" type="curve" smooth="yes"/>
      <point x="771" y="473"/>
      <point x="747" y="466"/>
      <point x="722" y="466" type="curve" smooth="yes"/>
      <point x="693" y="467"/>
      <point x="660" y="478"/>
      <point x="641" y="501" type="curve" smooth="yes"/>
      <point x="636" y="507"/>
      <point x="638" y="513"/>
    </contour>
  </outline>
  <guideline angle="0" x="0" y="792.5"/>
  <guideline angle="0" x="0" y="21.25"/>
</glyph>
<glyph name="o" format="2">
  <advance width="917"/>
  <unicode hex="006F"/>
  <outline>
    <contour>
      <point x="47" y="391" type="curve" smooth="yes"/>
      <point x="47" y="178"/>
      <point x="200" y="0"/>
      <point x="448" y="0" type="curve" smooth="yes"/>
      <point x="719" y="0"/>
      <point x="868" y="211"/>
      <point x="868" y="393" type="curve" smooth="yes"/>
      <point x="868" y="574"/>
      <point x="770" y="694"/>
      <point x="649" y="746" type="curve" smooth="yes"/>
      <point x="640" y="750"/>
      <point x="634" y="750"/>
      <point x="628" y="750" type="curve" smooth="yes"/>
      <point x="573" y="750" type="line" smooth="yes"/>
      <point x="567" y="750"/>
      <point x="558" y="750"/>
      <point x="553" y="746" type="curve" smooth="yes"/>
      <point x="522" y="721" type="line" smooth="yes"/>
      <point x="505" y="709"/>
      <point x="520" y="698"/>
      <point x="534" y="693" type="curve" smooth="yes"/>
      <point x="645" y="654"/>
      <point x="744" y="560"/>
      <point x="744" y="393" type="curve" smooth="yes"/>
      <point x="744" y="223"/>
      <point x="594" y="113"/>
      <point x="448" y="113" type="curve" smooth="yes"/>
      <point x="312" y="113"/>
      <point x="158" y="209"/>
      <point x="158" y="399" type="curve" smooth="yes"/>
      <point x="158" y="551"/>
      <point x="257" y="643"/>
      <point x="303" y="661" type="curve" smooth="yes"/>
      <point x="327" y="671"/>
      <point x="330" y="673"/>
      <point x="339" y="673" type="curve" smooth="yes"/>
      <point x="350" y="673"/>
      <point x="353" y="670"/>
      <point x="353" y="664" type="curve" smooth="yes"/>
      <point x="353" y="630" type="line" smooth="yes"/>
      <point x="353" y="624"/>
      <point x="348" y="619"/>
      <point x="333" y="609" type="curve" smooth="yes"/>
      <point x="277" y="571"/>
      <point x="215" y="508"/>
      <point x="215" y="408" type="curve" smooth="yes"/>
      <point x="215" y="284"/>
      <point x="309" y="176"/>
      <point x="452" y="176" type="curve" smooth="yes"/>
      <point x="507" y="176"/>
      <point x="554" y="193"/>
      <point x="574" y="213" type="curve" smooth="yes"/>
      <point x="582" y="220"/>
      <point x="584" y="226"/>
      <point x="572" y="230" type="curve" smooth="yes"/>
      <point x="503" y="254" type="line" smooth="yes"/>
      <point x="493" y="258"/>
      <point x="488" y="256"/>
      <point x="484" y="255" type="curve" smooth="yes"/>
      <point x="475" y="251"/>
      <point x="468" y="249"/>
      <point x="450" y="249" type="curve" smooth="yes"/>
      <point x="347" y="249"/>
      <point x="297" y="335"/>
      <point x="297" y="403" type="curve" smooth="yes"/>
      <point x="297" y="463"/>
      <point x="338.219" y="529.392"/>
      <point x="411" y="556" type="curve" smooth="yes"/>
      <point x="431.231" y="563.396"/>
      <point x="435" y="568"/>
      <point x="435" y="578" type="curve" smooth="yes"/>
      <point x="435" y="803" type="line" smooth="yes"/>
      <point x="435" y="811"/>
      <point x="428" y="811"/>
      <point x="420" y="811" type="curve" smooth="yes"/>
      <point x="229" y="811"/>
      <point x="47" y="616"/>
    </contour>
    <contour>
      <point x="370" y="401" type="curve" smooth="yes"/>
      <point x="370" y="358"/>
      <point x="405" y="321"/>
      <point x="449" y="321" type="curve" smooth="yes"/>
      <point x="493" y="321"/>
      <point x="530" y="358"/>
      <point x="530" y="401" type="curve" smooth="yes"/>
      <point x="530" y="445"/>
      <point x="493" y="480"/>
      <point x="449" y="480" type="curve" smooth="yes"/>
      <point x="405" y="480"/>
      <point x="370" y="445"/>
    </contour>
  </outline>
  <guideline angle="0" x="0" y="835"/>
  <guideline angle="0" x="0" y="20"/>
</glyph>
<glyph name="p" format="2">
  <advance width="1041"/>
  <unicode hex="0070"/>
  <outline>
    <contour>
      <point x="108" y="730" type="curve" smooth="yes"/>
      <point x="318" y="370" type="line" smooth="yes"/>
      <point x="335" y="340"/>
      <point x="368" y="334"/>
      <point x="381" y="358" type="curve" smooth="yes"/>
      <point x="609" y="733" type="line" smooth="yes"/>
      <point x="623" y="756"/>
      <point x="604" y="764"/>
      <point x="590" y="769" type="curve" smooth="yes"/>
      <point x="454" y="819"/>
      <point x="276" y="823"/>
      <point x="118" y="773" type="curve" smooth="yes"/>
      <point x="101" y="768"/>
      <point x="99" y="745"/>
    </contour>
    <contour>
      <point x="368" y="489" type="line" smooth="yes"/>
      <point x="363" y="480"/>
      <point x="348" y="464"/>
      <point x="333" y="493" type="curve" smooth="yes"/>
      <point x="241" y="666" type="line" smooth="yes"/>
      <point x="235" y="678"/>
      <point x="233" y="689"/>
      <point x="245" y="696" type="curve" smooth="yes"/>
      <point x="293" y="728"/>
      <point x="400" y="730"/>
      <point x="461" y="703" type="curve" smooth="yes"/>
      <point x="471" y="698"/>
      <point x="488" y="689"/>
      <point x="473" y="664" type="curve" smooth="yes"/>
    </contour>
    <contour>
      <point x="793" y="641" type="line" smooth="yes"/>
      <point x="771" y="641"/>
      <point x="756" y="626"/>
      <point x="748" y="610" type="curve" smooth="yes"/>
      <point x="435" y="19" type="line" smooth="yes"/>
      <point x="430" y="9"/>
      <point x="413" y="6"/>
      <point x="404" y="6" type="curve" smooth="yes"/>
      <point x="96" y="6" type="line" smooth="yes"/>
      <point x="85" y="6"/>
      <point x="83" y="14"/>
      <point x="83" y="26" type="curve" smooth="yes"/>
      <point x="86" y="111" type="line" smooth="yes"/>
      <point x="86" y="123"/>
      <point x="99" y="140"/>
      <point x="114" y="140" type="curve" smooth="yes"/>
      <point x="358" y="140" type="line" smooth="yes"/>
      <point x="375" y="140"/>
      <point x="389" y="148"/>
      <point x="398" y="163" type="curve" smooth="yes"/>
      <point x="700" y="715" type="line" smooth="yes"/>
      <point x="710" y="733"/>
      <point x="733" y="745"/>
      <point x="756" y="746" type="curve" smooth="yes"/>
      <point x="936" y="756" type="line" smooth="yes"/>
      <point x="950" y="758"/>
      <point x="954" y="745"/>
      <point x="954" y="733" type="curve" smooth="yes"/>
      <point x="954" y="660" type="line" smooth="yes"/>
      <point x="954" y="645"/>
      <point x="946" y="641"/>
      <point x="933" y="641" type="curve" smooth="yes"/>
    </contour>
    <contour>
      <point x="949" y="398" type="line"/>
      <point x="781" y="398" type="line" smooth="yes"/>
      <point x="766" y="398"/>
      <point x="760" y="401"/>
      <point x="765" y="414" type="curve" smooth="yes"/>
      <point x="788" y="476" type="line" smooth="yes"/>
      <point x="794" y="493"/>
      <point x="805" y="503"/>
      <point x="825" y="503" type="curve" smooth="yes"/>
      <point x="941" y="503" type="line" smooth="yes"/>
      <point x="948" y="503"/>
      <point x="949" y="500"/>
      <point x="949" y="491" type="curve" smooth="yes"/>
    </contour>
  </outline>
  <guideline angle="0" x="0" y="801.25"/>
</glyph>
<glyph name="r" format="2">
  <advance width="985"/>
  <unicode hex="0072"/>
  <outline>
    <contour>
      <point x="181" y="279" type="line"/>
      <point x="155" y="218"/>
      <point x="197.9" y="131"/>
      <point x="273" y="131" type="curve" smooth="yes"/>
      <point x="324.234" y="131"/>
      <point x="341.552" y="147.906"/>
      <point x="360" y="193" type="curve" smooth="yes"/>
      <point x="526" y="596" type="line" smooth="yes"/>
      <point x="530" y="605"/>
      <point x="526" y="610"/>
      <point x="517" y="610" type="curve" smooth="yes"/>
      <point x="334" y="610" type="line" smooth="yes"/>
      <point x="324" y="610"/>
      <point x="323" y="615"/>
      <point x="323" y="625" type="curve" smooth="yes"/>
      <point x="323" y="663" type="line" smooth="yes"/>
      <point x="323" y="669"/>
      <point x="324" y="672"/>
      <point x="326" y="676" type="curve" smooth="yes"/>
      <point x="354" y="735" type="line" smooth="yes"/>
      <point x="358" y="743"/>
      <point x="364" y="749"/>
      <point x="371" y="749" type="curve" smooth="yes"/>
      <point x="661" y="749" type="line" smooth="yes"/>
      <point x="678" y="749"/>
      <point x="680" y="744"/>
      <point x="678" y="738" type="curve" smooth="yes"/>
      <point x="423" y="70" type="line" smooth="yes"/>
      <point x="416" y="53"/>
      <point x="408" y="44"/>
      <point x="406" y="26" type="curve" smooth="yes"/>
      <point x="405" y="10" type="line" smooth="yes"/>
      <point x="405" y="5"/>
      <point x="401" y="3"/>
      <point x="396" y="3" type="curve" smooth="yes"/>
      <point x="181" y="3" type="line" smooth="yes"/>
      <point x="174" y="3"/>
      <point x="171" y="4"/>
      <point x="155.426" y="17.3494" type="curve" smooth="yes"/>
      <point x="108" y="58"/>
      <point x="69" y="106"/>
      <point x="69" y="178.832" type="curve" smooth="yes"/>
      <point x="69" y="224"/>
      <point x="84" y="289"/>
      <point x="92.1372" y="307.018" type="curve" smooth="yes"/>
      <point x="98" y="320"/>
      <point x="105" y="319"/>
      <point x="113" y="315" type="curve" smooth="yes"/>
    </contour>
    <contour>
      <point x="63" y="701" type="line" smooth="yes"/>
      <point x="36" y="741"/>
      <point x="73" y="753"/>
      <point x="85" y="753" type="curve" smooth="yes"/>
      <point x="261" y="753" type="line" smooth="yes"/>
      <point x="276" y="753"/>
      <point x="285" y="744"/>
      <point x="276" y="724" type="curve" smooth="yes"/>
      <point x="208" y="569" type="line" smooth="yes"/>
      <point x="199" y="550"/>
      <point x="165" y="546"/>
      <point x="155" y="561" type="curve" smooth="yes"/>
    </contour>
    <contour>
      <point x="904" y="753" type="line" smooth="yes"/>
      <point x="919" y="753"/>
      <point x="929" y="750"/>
      <point x="929" y="726" type="curve" smooth="yes"/>
      <point x="929" y="718"/>
      <point x="928" y="706"/>
      <point x="919" y="683" type="curve" smooth="yes"/>
      <point x="659" y="14" type="line" smooth="yes"/>
      <point x="654" y="3"/>
      <point x="644" y="-3"/>
      <point x="634" y="-3" type="curve" smooth="yes"/>
      <point x="543" y="-3" type="line" smooth="yes"/>
      <point x="529" y="-3"/>
      <point x="525" y="25"/>
      <point x="531" y="41" type="curve" smooth="yes"/>
      <point x="799" y="739" type="line" smooth="yes"/>
      <point x="804" y="750"/>
      <point x="813" y="753"/>
      <point x="821" y="753" type="curve" smooth="yes"/>
    </contour>
  </outline>
  <guideline angle="0" x="0" y="790"/>
  <guideline angle="0" x="0" y="28.75"/>
</glyph>
<glyph name="s" format="2">
  <advance width="914"/>
  <unicode hex="0073"/>
  <outline>
    <contour>
      <point x="554" y="146" type="curve" smooth="yes"/>
      <point x="838" y="146" type="line" smooth="yes"/>
      <point x="851" y="146"/>
      <point x="854" y="140"/>
      <point x="845" y="130" type="curve" smooth="yes"/>
      <point x="704" y="-19" type="line" smooth="yes"/>
      <point x="695" y="-29"/>
      <point x="688" y="-26"/>
      <point x="681" y="-19" type="curve" smooth="yes"/>
      <point x="546" y="128" type="line" smooth="yes"/>
      <point x="538" y="136"/>
      <point x="544" y="146"/>
    </contour>
    <contour>
      <point x="476" y="93" type="curve" smooth="yes"/>
      <point x="213" y="93" type="line" smooth="yes"/>
      <point x="200" y="93"/>
      <point x="195" y="99"/>
      <point x="195" y="109" type="curve" smooth="yes"/>
      <point x="195" y="218" type="line" smooth="yes"/>
      <point x="195" y="230"/>
      <point x="203" y="234"/>
      <point x="211" y="234" type="curve" smooth="yes"/>
      <point x="813" y="234" type="line" smooth="yes"/>
      <point x="825" y="234"/>
      <point x="829" y="239"/>
      <point x="829" y="250" type="curve" smooth="yes"/>
      <point x="829" y="544" type="line" smooth="yes"/>
      <point x="829" y="554"/>
      <point x="825" y="559"/>
      <point x="815" y="559" type="curve" smooth="yes"/>
      <point x="214" y="559" type="line" smooth="yes"/>
      <point x="193" y="559"/>
      <point x="190" y="561"/>
      <point x="190" y="583" type="curve" smooth="yes"/>
      <point x="190" y="655" type="line" smooth="yes"/>
      <point x="190" y="664"/>
      <point x="191" y="666"/>
      <point x="201" y="666" type="curve" smooth="yes"/>
      <point x="828" y="693" type="line" smooth="yes"/>
      <point x="839" y="693"/>
      <point x="839" y="698"/>
      <point x="839" y="710" type="curve" smooth="yes"/>
      <point x="839" y="778" type="line" smooth="yes"/>
      <point x="839" y="790"/>
      <point x="835" y="790"/>
      <point x="830" y="790" type="curve" smooth="yes"/>
      <point x="98" y="754" type="line" smooth="yes"/>
      <point x="84" y="753"/>
      <point x="81" y="745"/>
      <point x="81" y="738" type="curve" smooth="yes"/>
      <point x="81" y="496" type="line" smooth="yes"/>
      <point x="81" y="478"/>
      <point x="86" y="473"/>
      <point x="101" y="473" type="curve" smooth="yes"/>
      <point x="706" y="473" type="line" smooth="yes"/>
      <point x="715" y="473"/>
      <point x="720" y="468"/>
      <point x="720" y="458" type="curve" smooth="yes"/>
      <point x="720" y="345" type="line" smooth="yes"/>
      <point x="720" y="335"/>
      <point x="715" y="330"/>
      <point x="705" y="330" type="curve" smooth="yes"/>
      <point x="91" y="330" type="line" smooth="yes"/>
      <point x="80" y="330"/>
      <point x="78" y="326"/>
      <point x="78" y="318" type="curve" smooth="yes"/>
      <point x="78" y="20" type="line" smooth="yes"/>
      <point x="78" y="4"/>
      <point x="83" y="0"/>
      <point x="98" y="0" type="curve" smooth="yes"/>
      <point x="543" y="0" type="line" smooth="yes"/>
      <point x="559" y="0"/>
      <point x="554" y="11"/>
      <point x="549" y="18" type="curve" smooth="yes"/>
      <point x="499" y="81" type="line" smooth="yes"/>
      <point x="493" y="90"/>
      <point x="485" y="93"/>
    </contour>
  </outline>
  <guideline angle="0" x="0" y="805"/>
  <guideline angle="0" x="0" y="0"/>
</glyph>
<glyph name="t" format="2">
  <advance width="844"/>
  <unicode hex="0074"/>
  <outline>
    <contour>
      <point x="105.517" y="753.81" type="curve" smooth="yes"/>
      <point x="742.38" y="753.81" type="line" smooth="yes"/>
      <point x="758.133" y="753.81"/>
      <point x="762.634" y="747.34"/>
      <point x="762.634" y="735.479" type="curve" smooth="yes"/>
      <point x="762.634" y="666.468" type="line" smooth="yes"/>
      <point x="762.634" y="645.98"/>
      <point x="751.382" y="638.432"/>
      <point x="735.629" y="638.432" type="curve" smooth="yes"/>
      <point x="104.392" y="638.432" type="line" smooth="yes"/>
      <point x="84.138" y="638.432"/>
      <point x="78.512" y="641.667"/>
      <point x="78.512" y="662.154" type="curve" smooth="yes"/>
      <point x="78.512" y="730.087" type="line" smooth="yes"/>
      <point x="78.512" y="746.262"/>
      <point x="88.6388" y="753.81"/>
    </contour>
    <contour>
      <point x="78.512" y="535.993" type="curve" smooth="yes"/>
      <point x="78.512" y="42.132" type="line" smooth="yes"/>
      <point x="78.512" y="24.8792"/>
      <point x="84.138" y="24.8792"/>
      <point x="93.1396" y="30.2707" type="curve" smooth="yes"/>
      <point x="178.655" y="84.1857" type="line" smooth="yes"/>
      <point x="189.907" y="90.6555"/>
      <point x="189.907" y="93.8904"/>
      <point x="189.907" y="105.752" type="curve" smooth="yes"/>
      <point x="189.907" y="419.537" type="line" smooth="yes"/>
      <point x="189.907" y="435.711"/>
      <point x="202.284" y="442.181"/>
      <point x="216.912" y="442.181" type="curve" smooth="yes"/>
      <point x="625.359" y="442.181" type="line" smooth="yes"/>
      <point x="636.611" y="442.181"/>
      <point x="642.237" y="435.711"/>
      <point x="642.237" y="428.163" type="curve" smooth="yes"/>
      <point x="642.237" y="139.179" type="line" smooth="yes"/>
      <point x="642.237" y="127.318"/>
      <point x="634.361" y="126.239"/>
      <point x="624.234" y="126.239" type="curve" smooth="yes"/>
      <point x="488.085" y="126.239" type="line" smooth="yes"/>
      <point x="481.334" y="126.239"/>
      <point x="477.958" y="128.396"/>
      <point x="477.958" y="134.866" type="curve" smooth="yes"/>
      <point x="477.958" y="245.931" type="line" smooth="yes"/>
      <point x="477.958" y="251.322"/>
      <point x="476.833" y="257.792"/>
      <point x="471.207" y="263.183" type="curve" smooth="yes"/>
      <point x="427.324" y="306.315" type="line" smooth="yes"/>
      <point x="422.823" y="310.629"/>
      <point x="417.197" y="314.942"/>
      <point x="409.321" y="314.942" type="curve" smooth="yes"/>
      <point x="375.565" y="314.942" type="line" smooth="yes"/>
      <point x="368.814" y="314.942"/>
      <point x="366.563" y="307.394"/>
      <point x="366.563" y="300.924" type="curve" smooth="yes"/>
      <point x="366.563" y="35.6622" type="line" smooth="yes"/>
      <point x="366.563" y="23.8009"/>
      <point x="374.44" y="16.2528"/>
      <point x="380.066" y="16.2528" type="curve" smooth="yes"/>
      <point x="742.38" y="16.2528" type="line" smooth="yes"/>
      <point x="753.632" y="16.2528"/>
      <point x="758.133" y="23.8009"/>
      <point x="758.133" y="31.349" type="curve" smooth="yes"/>
      <point x="758.133" y="532.758" type="line" smooth="yes"/>
      <point x="758.133" y="547.855"/>
      <point x="745.756" y="557.559"/>
      <point x="731.128" y="557.559" type="curve" smooth="yes"/>
      <point x="104.392" y="557.559" type="line" smooth="yes"/>
      <point x="88.6388" y="557.559"/>
      <point x="78.512" y="552.168"/>
    </contour>
  </outline>
  <guideline angle="0" x="0" y="16.25"/>
  <guideline angle="0" x="0" y="755"/>
</glyph>
<glyph name="u" format="2">
  <advance width="969"/>
  <unicode hex="0075"/>
  <outline>
    <contour>
      <point x="111.618" y="652" type="curve" smooth="yes"/>
      <point x="839.169" y="652" type="line" smooth="yes"/>
      <point x="844.427" y="652"/>
      <point x="851" y="657.416"/>
      <point x="851" y="662.675" type="curve" smooth="yes"/>
      <point x="851" y="765.029" type="line" smooth="yes"/>
      <point x="851" y="771.071"/>
      <point x="845.21" y="779"/>
      <point x="839.169" y="779" type="curve" smooth="yes"/>
      <point x="111.618" y="779" type="line" smooth="yes"/>
      <point x="105.827" y="779"/>
      <point x="101" y="770.82"/>
      <point x="101" y="765.029" type="curve" smooth="yes"/>
      <point x="101" y="662.675" type="line" smooth="yes"/>
      <point x="101" y="657.706"/>
      <point x="106.649" y="652"/>
    </contour>
    <contour>
      <point x="111.618" y="439" type="curve" smooth="yes"/>
      <point x="839.169" y="439" type="line" smooth="yes"/>
      <point x="844.496" y="439"/>
      <point x="851" y="444.656"/>
      <point x="851" y="449.984" type="curve" smooth="yes"/>
      <point x="851" y="560.289" type="line" smooth="yes"/>
      <point x="851" y="565.783"/>
      <point x="844.662" y="572"/>
      <point x="839.169" y="572" type="curve" smooth="yes"/>
      <point x="111.618" y="572" type="line" smooth="yes"/>
      <point x="106.402" y="572"/>
      <point x="101" y="565.506"/>
      <point x="101" y="560.289" type="curve" smooth="yes"/>
      <point x="101" y="449.984" type="line" smooth="yes"/>
      <point x="101" y="444.942"/>
      <point x="106.577" y="439"/>
    </contour>
    <contour>
      <point x="119.593" y="-45" type="curve" smooth="yes"/>
      <point x="243.825" y="-45" type="line" smooth="yes"/>
      <point x="249.706" y="-45"/>
      <point x="257" y="-38.8808"/>
      <point x="257" y="-33" type="curve" smooth="yes"/>
      <point x="257" y="343.623" type="line" smooth="yes"/>
      <point x="257" y="349.588"/>
      <point x="249.791" y="356"/>
      <point x="243.825" y="356" type="curve" smooth="yes"/>
      <point x="119.593" y="356" type="line" smooth="yes"/>
      <point x="114.217" y="356"/>
      <point x="109" y="349"/>
      <point x="109" y="343.624" type="curve" smooth="yes"/>
      <point x="109" y="-33" type="line" smooth="yes"/>
      <point x="109" y="-38.2823"/>
      <point x="114.311" y="-45"/>
    </contour>
    <contour>
      <point x="698.017" y="-45" type="curve" smooth="yes"/>
      <point x="826.224" y="-45" type="line" smooth="yes"/>
      <point x="830.839" y="-45"/>
      <point x="836" y="-39.6149"/>
      <point x="836" y="-35" type="curve" smooth="yes"/>
      <point x="836" y="345.623" type="line" smooth="yes"/>
      <point x="836" y="350.328"/>
      <point x="830.929" y="356"/>
      <point x="826.224" y="356" type="curve" smooth="yes"/>
      <point x="698.017" y="356" type="line" smooth="yes"/>
      <point x="693.257" y="356"/>
      <point x="688" y="350.382"/>
      <point x="688" y="345.623" type="curve" smooth="yes"/>
      <point x="688" y="-35" type="line" smooth="yes"/>
      <point x="688" y="-39.6708"/>
      <point x="693.346" y="-45"/>
    </contour>
  </outline>
  <guideline angle="0" x="0" y="758"/>
  <guideline angle="0" x="0" y="-35"/>
</glyph>
<glyph name="v" format="2">
  <advance width="1091"/>
  <unicode hex="0076"/>
  <outline>
    <contour>
      <point x="1021" y="113" type="curve" smooth="yes"/>
      <point x="1010" y="89"/>
      <point x="999" y="86"/>
      <point x="989" y="86" type="curve" smooth="yes"/>
      <point x="755" y="86" type="line" smooth="yes"/>
      <point x="729" y="86"/>
      <point x="711" y="100"/>
      <point x="704" y="118" type="curve" smooth="yes"/>
      <point x="694" y="143"/>
      <point x="690" y="203"/>
      <point x="731" y="248" type="curve" smooth="yes"/>
      <point x="758" y="276"/>
      <point x="801" y="298"/>
      <point x="858" y="298" type="curve" smooth="yes"/>
      <point x="914" y="298"/>
      <point x="969" y="276"/>
      <point x="1001" y="239" type="curve" smooth="yes"/>
      <point x="1034" y="201"/>
      <point x="1040" y="154"/>
    </contour>
    <contour>
      <point x="371" y="114" type="curve" smooth="yes"/>
      <point x="360" y="89"/>
      <point x="345" y="86"/>
      <point x="333" y="86" type="curve" smooth="yes"/>
      <point x="105" y="86" type="line" smooth="yes"/>
      <point x="88" y="86"/>
      <point x="74" y="100"/>
      <point x="68" y="116" type="curve" smooth="yes"/>
      <point x="56" y="143"/>
      <point x="53" y="203"/>
      <point x="95" y="249" type="curve" smooth="yes"/>
      <point x="120" y="276"/>
      <point x="159" y="298"/>
      <point x="224" y="298" type="curve" smooth="yes"/>
      <point x="271" y="298"/>
      <point x="318" y="286"/>
      <point x="349" y="250" type="curve" smooth="yes"/>
      <point x="383" y="211"/>
      <point x="390" y="154"/>
    </contour>
    <contour>
      <point x="670" y="538" type="curve" smooth="yes"/>
      <point x="658" y="511"/>
      <point x="641" y="506"/>
      <point x="629" y="506" type="curve" smooth="yes"/>
      <point x="424" y="506" type="line" smooth="yes"/>
      <point x="406" y="506"/>
      <point x="393" y="520"/>
      <point x="386" y="536" type="curve" smooth="yes"/>
      <point x="375" y="563"/>
      <point x="371" y="623"/>
      <point x="416" y="671" type="curve" smooth="yes"/>
      <point x="439" y="696"/>
      <point x="473" y="718"/>
      <point x="538" y="718" type="curve" smooth="yes"/>
      <point x="585" y="718"/>
      <point x="618" y="706"/>
      <point x="645" y="675" type="curve" smooth="yes"/>
      <point x="683" y="631"/>
      <point x="688" y="576"/>
    </contour>
  </outline>
  <guideline angle="0" x="0" y="778.75"/>
  <guideline angle="0" x="0" y="128.75"/>
</glyph>
<glyph name="w" format="2">
  <advance width="915"/>
  <unicode hex="0077"/>
  <outline>
    <contour>
      <point x="465.023" y="750.49" type="line" smooth="yes"/>
      <point x="445.179" y="750.49"/>
      <point x="436.179" y="745.149"/>
      <point x="436.179" y="722.124" type="curve" smooth="yes"/>
      <point x="436.179" y="560.687" type="line" smooth="yes"/>
      <point x="436.179" y="542.884"/>
      <point x="431.032" y="529.413"/>
      <point x="414.562" y="529.413" type="curve" smooth="yes"/>
      <point x="226.255" y="529.413" type="line" smooth="yes"/>
      <point x="220.45" y="529.413"/>
      <point x="216.175" y="530.724"/>
      <point x="211.288" y="533.78" type="curve" smooth="yes"/>
      <point x="135.499" y="581.177" type="line" smooth="yes"/>
      <point x="124.073" y="588.323"/>
      <point x="108.735" y="595.197"/>
      <point x="108.735" y="569.314" type="curve" smooth="yes"/>
      <point x="108.735" y="201.57" type="line" smooth="yes"/>
      <point x="108.735" y="182.676"/>
      <point x="119.029" y="169.218"/>
      <point x="135.499" y="169.218" type="curve" smooth="yes"/>
      <point x="515.716" y="169.218" type="line" smooth="yes"/>
      <point x="533.228" y="169.218"/>
      <point x="548.986" y="177.845"/>
      <point x="548.986" y="197.257" type="curve" smooth="yes"/>
      <point x="548.986" y="608.138" type="line" smooth="yes"/>
      <point x="548.986" y="620.033"/>
      <point x="553.104" y="629.706"/>
      <point x="569.574" y="629.706" type="curve" smooth="yes"/>
      <point x="671.2" y="629.706" type="line" smooth="yes"/>
      <point x="683.338" y="629.706"/>
      <point x="693.847" y="617.584"/>
      <point x="693.847" y="599.51" type="curve" smooth="yes"/>
      <point x="693.847" y="231.766" type="line" smooth="yes"/>
      <point x="693.847" y="182.159"/>
      <point x="632.184" y="141.022"/>
      <point x="632.225" y="125.231" type="curve" smooth="yes"/>
      <point x="632.272" y="107.092"/>
      <point x="661.617" y="80.7415"/>
      <point x="719.117" y="37.3695" type="curve" smooth="yes"/>
      <point x="776.714" y="-6.07628"/>
      <point x="825.198" y="-41.4957"/>
      <point x="825.198" y="-6.56613" type="curve" smooth="yes"/>
      <point x="825.198" y="714.902" type="line" smooth="yes"/>
      <point x="825.198" y="735.048"/>
      <point x="816.962" y="750.49"/>
      <point x="792.257" y="750.49" type="curve" smooth="yes"/>
    </contour>
    <contour>
      <point x="226.255" y="422.778" type="curve" smooth="yes"/>
      <point x="427.608" y="422.778" type="line" smooth="yes"/>
      <point x="431.361" y="422.778"/>
      <point x="436.323" y="419.054"/>
      <point x="436.323" y="415.122" type="curve" smooth="yes"/>
      <point x="436.323" y="281.958" type="line" smooth="yes"/>
      <point x="436.323" y="278.071"/>
      <point x="431.318" y="274.515"/>
      <point x="427.608" y="274.515" type="curve" smooth="yes"/>
      <point x="226.255" y="274.515" type="line" smooth="yes"/>
      <point x="222.531" y="274.515"/>
      <point x="217.487" y="278.056"/>
      <point x="217.487" y="281.958" type="curve" smooth="yes"/>
      <point x="217.487" y="415.122" type="line" smooth="yes"/>
      <point x="217.487" y="419.068"/>
      <point x="222.488" y="422.778"/>
    </contour>
    <contour>
      <point x="270.403" y="785" type="curve" smooth="yes"/>
      <point x="316.491" y="785"/>
      <point x="327.044" y="750.211"/>
      <point x="327.062" y="700.523" type="curve" smooth="yes"/>
      <point x="327.08" y="650.438"/>
      <point x="319.533" y="618.922"/>
      <point x="263.58" y="618.922" type="curve" smooth="yes"/>
      <point x="212.712" y="618.922"/>
      <point x="77.0756" y="701.427"/>
      <point x="77.0756" y="722.124" type="curve" smooth="yes"/>
      <point x="77.0756" y="748.154"/>
      <point x="163.393" y="785"/>
    </contour>
    <contour>
      <point x="147.852" y="114.218" type="line" smooth="yes"/>
      <point x="139.49" y="114.227"/>
      <point x="133.993" y="112.378"/>
      <point x="129.993" y="105.476" type="curve" smooth="yes"/>
      <point x="85.0585" y="27.9436" type="line" smooth="yes"/>
      <point x="79.1922" y="17.8214"/>
      <point x="78.4027" y="16.0809"/>
      <point x="93.2937" y="16.0809" type="curve" smooth="yes"/>
      <point x="571.491" y="16.0809" type="line" smooth="yes"/>
      <point x="582.814" y="16.0809"/>
      <point x="585.785" y="19.5494"/>
      <point x="577.667" y="31.1788" type="curve" smooth="yes"/>
      <point x="527.226" y="103.434" type="line" smooth="yes"/>
      <point x="521.15" y="112.138"/>
      <point x="515.2" y="113.803"/>
      <point x="507.106" y="113.812" type="curve" smooth="yes"/>
    </contour>
  </outline>
  <guideline angle="0" x="0" y="752"/>
  <guideline angle="0" x="0" y="16"/>
</glyph>
<glyph name="z" format="2">
  <advance width="979"/>
  <unicode hex="007A"/>
  <outline>
    <contour>
      <point x="68" y="608" type="line"/>
      <point x="256" y="781" type="line" smooth="yes"/>
      <point x="274" y="798"/>
      <point x="293" y="795"/>
      <point x="305" y="783" type="curve" smooth="yes"/>
      <point x="453" y="631" type="line" smooth="yes"/>
      <point x="478" y="606"/>
      <point x="499" y="623"/>
      <point x="510" y="634" type="curve" smooth="yes"/>
      <point x="664" y="788" type="line" smooth="yes"/>
      <point x="681" y="805"/>
      <point x="705" y="800"/>
      <point x="721" y="781" type="curve" smooth="yes"/>
      <point x="889" y="591" type="line" smooth="yes"/>
      <point x="898" y="581"/>
      <point x="898" y="571"/>
      <point x="898" y="561" type="curve" smooth="yes"/>
      <point x="898" y="431" type="line" smooth="yes"/>
      <point x="898" y="411"/>
      <point x="890" y="419"/>
      <point x="885" y="424" type="curve" smooth="yes"/>
      <point x="706" y="606" type="line" smooth="yes"/>
      <point x="698" y="615"/>
      <point x="688" y="615"/>
      <point x="681" y="609" type="curve" smooth="yes"/>
      <point x="504" y="438" type="line" smooth="yes"/>
      <point x="488" y="423"/>
      <point x="470" y="426"/>
      <point x="458" y="438" type="curve" smooth="yes"/>
      <point x="285" y="608" type="line" smooth="yes"/>
      <point x="275" y="618"/>
      <point x="265" y="613"/>
      <point x="256" y="604" type="curve" smooth="yes"/>
      <point x="76" y="429" type="line" smooth="yes"/>
      <point x="64" y="418"/>
      <point x="58" y="424"/>
      <point x="59" y="438" type="curve" smooth="yes"/>
    </contour>
    <contour>
      <point x="898" y="205" type="line"/>
      <point x="898" y="21" type="line"/>
      <point x="705" y="215" type="line" smooth="yes"/>
      <point x="696" y="225"/>
      <point x="685" y="221"/>
      <point x="676" y="213" type="curve" smooth="yes"/>
      <point x="508" y="45" type="line" smooth="yes"/>
      <point x="490" y="28"/>
      <point x="471" y="33"/>
      <point x="459" y="45" type="curve" smooth="yes"/>
      <point x="284" y="214" type="line" smooth="yes"/>
      <point x="273" y="225"/>
      <point x="265" y="219"/>
      <point x="256" y="210" type="curve" smooth="yes"/>
      <point x="73" y="28" type="line"/>
      <point x="68" y="48"/>
      <point x="63" y="134"/>
      <point x="64" y="180" type="curve" smooth="yes"/>
      <point x="64" y="196"/>
      <point x="73" y="214"/>
      <point x="83" y="224" type="curve" smooth="yes"/>
      <point x="243" y="380" type="line" smooth="yes"/>
      <point x="266" y="403"/>
      <point x="293" y="400"/>
      <point x="309" y="384" type="curve" smooth="yes"/>
      <point x="460" y="236" type="line" smooth="yes"/>
      <point x="478" y="219"/>
      <point x="486" y="225"/>
      <point x="495" y="234" type="curve" smooth="yes"/>
      <point x="663" y="389" type="line" smooth="yes"/>
      <point x="680" y="405"/>
      <point x="703" y="399"/>
      <point x="721" y="380" type="curve" smooth="yes"/>
    </contour>
  </outline>
  <guideline angle="0" x="0" y="798.75"/>
  <guideline angle="0" x="0" y="21.25"/>
</glyph>
